<svg width="321" height="171" viewBox="0 0 321 171" fill="none" xmlns="http://www.w3.org/2000/svg">
<rect width="321" height="171" rx="12" fill="#242121"/>
<path d="M39.08 101.24C37.336 101.24 35.888 100.808 34.736 99.944C33.584 99.08 32.976 97.816 32.912 96.152C32.912 96.008 32.96 95.888 33.056 95.792C33.152 95.68 33.28 95.624 33.44 95.624H34.736C35.072 95.624 35.28 95.808 35.36 96.176C35.456 97.2 35.848 97.96 36.536 98.456C37.224 98.952 38.088 99.2 39.128 99.2C40.328 99.2 41.248 98.808 41.888 98.024C42.544 97.224 42.872 96.152 42.872 94.808V86.288H34.352C34.192 86.288 34.056 86.24 33.944 86.144C33.848 86.032 33.8 85.896 33.8 85.736V84.752C33.8 84.592 33.848 84.464 33.944 84.368C34.056 84.256 34.192 84.2 34.352 84.2H44.696C44.872 84.2 45.008 84.256 45.104 84.368C45.216 84.464 45.272 84.6 45.272 84.776V94.856C45.272 96.808 44.72 98.36 43.616 99.512C42.528 100.664 41.016 101.24 39.08 101.24ZM54.0989 101.24C52.3389 101.24 50.9709 100.744 49.9949 99.752C49.0349 98.76 48.5229 97.44 48.4589 95.792L48.4349 94.76L48.4589 93.728C48.5229 92.096 49.0429 90.784 50.0189 89.792C50.9949 88.784 52.3549 88.28 54.0989 88.28C55.8429 88.28 57.2029 88.784 58.1789 89.792C59.1549 90.784 59.6749 92.096 59.7389 93.728C59.7549 93.904 59.7629 94.248 59.7629 94.76C59.7629 95.272 59.7549 95.616 59.7389 95.792C59.6749 97.44 59.1549 98.76 58.1789 99.752C57.2189 100.744 55.8589 101.24 54.0989 101.24ZM54.0989 99.392C55.1069 99.392 55.8989 99.072 56.4749 98.432C57.0669 97.792 57.3869 96.872 57.4349 95.672C57.4509 95.512 57.4589 95.208 57.4589 94.76C57.4589 94.312 57.4509 94.008 57.4349 93.848C57.3869 92.648 57.0669 91.728 56.4749 91.088C55.8989 90.448 55.1069 90.128 54.0989 90.128C53.0909 90.128 52.2909 90.448 51.6989 91.088C51.1069 91.728 50.7949 92.648 50.7629 93.848L50.7389 94.76L50.7629 95.672C50.7949 96.872 51.1069 97.792 51.6989 98.432C52.2909 99.072 53.0909 99.392 54.0989 99.392ZM66.2482 101.24C65.4642 101.24 64.7362 101.08 64.0642 100.76C63.3922 100.44 62.8562 100.008 62.4562 99.464C62.0722 98.904 61.8802 98.288 61.8802 97.616C61.8802 96.56 62.3122 95.696 63.1762 95.024C64.0562 94.336 65.2402 93.888 66.7282 93.68L70.3042 93.176V92.48C70.3042 90.848 69.3682 90.032 67.4962 90.032C66.7922 90.032 66.2162 90.184 65.7682 90.488C65.3202 90.776 64.9842 91.12 64.7602 91.52C64.7122 91.664 64.6482 91.768 64.5682 91.832C64.5042 91.896 64.4082 91.928 64.2802 91.928H63.2482C63.1042 91.928 62.9762 91.88 62.8642 91.784C62.7682 91.672 62.7202 91.544 62.7202 91.4C62.7362 91.016 62.9122 90.584 63.2482 90.104C63.6002 89.608 64.1362 89.184 64.8562 88.832C65.5762 88.464 66.4642 88.28 67.5202 88.28C69.3122 88.28 70.6002 88.704 71.3842 89.552C72.1682 90.384 72.5602 91.424 72.5602 92.672V100.448C72.5602 100.608 72.5042 100.744 72.3922 100.856C72.2962 100.952 72.1682 101 72.0082 101H70.9042C70.7442 101 70.6082 100.952 70.4962 100.856C70.4002 100.744 70.3522 100.608 70.3522 100.448V99.416C70.0002 99.928 69.4882 100.36 68.8162 100.712C68.1442 101.064 67.2882 101.24 66.2482 101.24ZM66.7522 99.44C67.7922 99.44 68.6402 99.104 69.2962 98.432C69.9682 97.744 70.3042 96.76 70.3042 95.48V94.808L67.5202 95.216C66.3842 95.376 65.5282 95.648 64.9522 96.032C64.3762 96.4 64.0882 96.872 64.0882 97.448C64.0882 98.088 64.3522 98.584 64.8802 98.936C65.4082 99.272 66.0322 99.44 66.7522 99.44ZM68.6962 86.84C68.4082 86.84 68.1602 86.8 67.9522 86.72C67.7442 86.64 67.5122 86.52 67.2562 86.36C67.1282 86.28 66.9922 86.208 66.8482 86.144C66.7042 86.064 66.5602 86.024 66.4162 86.024C66.2882 86.024 66.1842 86.048 66.1042 86.096C66.0402 86.144 65.9842 86.2 65.9362 86.264C65.8882 86.328 65.8562 86.368 65.8402 86.384C65.7122 86.608 65.5602 86.72 65.3842 86.72H64.6162C64.5042 86.72 64.4082 86.68 64.3282 86.6C64.2482 86.52 64.2082 86.432 64.2082 86.336C64.2082 85.808 64.3922 85.32 64.7602 84.872C65.1282 84.424 65.6082 84.2 66.2002 84.2C66.4882 84.2 66.7282 84.24 66.9202 84.32C67.1282 84.4 67.3762 84.52 67.6642 84.68C67.6962 84.696 67.8002 84.752 67.9762 84.848C68.1522 84.96 68.3362 85.016 68.5282 85.016C68.6722 85.016 68.7762 84.984 68.8402 84.92C68.9202 84.856 69.0002 84.76 69.0802 84.632C69.1442 84.52 69.2082 84.44 69.2722 84.392C69.3362 84.328 69.4242 84.296 69.5362 84.296H70.3042C70.4322 84.296 70.5282 84.336 70.5922 84.416C70.6722 84.496 70.7122 84.592 70.7122 84.704C70.7122 85.216 70.5202 85.704 70.1362 86.168C69.7682 86.616 69.2882 86.84 68.6962 86.84ZM81.1224 101.24C79.3624 101.24 77.9944 100.744 77.0184 99.752C76.0584 98.76 75.5464 97.44 75.4824 95.792L75.4584 94.76L75.4824 93.728C75.5464 92.096 76.0664 90.784 77.0424 89.792C78.0184 88.784 79.3784 88.28 81.1224 88.28C82.8664 88.28 84.2264 88.784 85.2024 89.792C86.1784 90.784 86.6984 92.096 86.7624 93.728C86.7784 93.904 86.7864 94.248 86.7864 94.76C86.7864 95.272 86.7784 95.616 86.7624 95.792C86.6984 97.44 86.1784 98.76 85.2024 99.752C84.2424 100.744 82.8824 101.24 81.1224 101.24ZM81.1224 99.392C82.1304 99.392 82.9224 99.072 83.4984 98.432C84.0904 97.792 84.4104 96.872 84.4584 95.672C84.4744 95.512 84.4824 95.208 84.4824 94.76C84.4824 94.312 84.4744 94.008 84.4584 93.848C84.4104 92.648 84.0904 91.728 83.4984 91.088C82.9224 90.448 82.1304 90.128 81.1224 90.128C80.1144 90.128 79.3144 90.448 78.7224 91.088C78.1304 91.728 77.8184 92.648 77.7864 93.848L77.7624 94.76L77.7864 95.672C77.8184 96.872 78.1304 97.792 78.7224 98.432C79.3144 99.072 80.1144 99.392 81.1224 99.392ZM96.5384 101C96.3784 101 96.2424 100.952 96.1304 100.856C96.0344 100.744 95.9864 100.608 95.9864 100.448V84.776C95.9864 84.6 96.0344 84.464 96.1304 84.368C96.2424 84.256 96.3784 84.2 96.5384 84.2H102.634C104.442 84.2 105.866 84.64 106.906 85.52C107.946 86.4 108.466 87.672 108.466 89.336C108.466 91 107.946 92.272 106.906 93.152C105.882 94.016 104.458 94.448 102.634 94.448H98.3864V100.448C98.3864 100.608 98.3304 100.744 98.2184 100.856C98.1064 100.952 97.9704 101 97.8104 101H96.5384ZM102.514 92.432C103.682 92.432 104.562 92.168 105.154 91.64C105.762 91.112 106.066 90.344 106.066 89.336C106.066 88.328 105.77 87.56 105.178 87.032C104.586 86.488 103.698 86.216 102.514 86.216H98.3624V92.432H102.514ZM115.901 101.24C114.253 101.24 112.933 100.736 111.941 99.728C110.965 98.704 110.429 97.312 110.333 95.552L110.309 94.736L110.333 93.944C110.445 92.216 110.989 90.84 111.965 89.816C112.957 88.792 114.261 88.28 115.877 88.28C117.653 88.28 119.029 88.848 120.005 89.984C120.981 91.104 121.469 92.624 121.469 94.544V94.952C121.469 95.112 121.413 95.248 121.301 95.36C121.205 95.456 121.077 95.504 120.917 95.504H112.613V95.72C112.661 96.76 112.973 97.648 113.549 98.384C114.141 99.104 114.917 99.464 115.877 99.464C116.613 99.464 117.213 99.32 117.677 99.032C118.157 98.728 118.509 98.416 118.733 98.096C118.877 97.904 118.981 97.792 119.045 97.76C119.125 97.712 119.261 97.688 119.453 97.688H120.629C120.773 97.688 120.893 97.728 120.989 97.808C121.085 97.888 121.133 98 121.133 98.144C121.133 98.496 120.909 98.92 120.461 99.416C120.029 99.912 119.413 100.344 118.613 100.712C117.829 101.064 116.925 101.24 115.901 101.24ZM119.189 93.848V93.776C119.189 92.672 118.885 91.776 118.277 91.088C117.685 90.384 116.885 90.032 115.877 90.032C114.869 90.032 114.069 90.384 113.477 91.088C112.901 91.776 112.613 92.672 112.613 93.776V93.848H119.189ZM128.898 101.24C127.235 101.24 125.979 100.696 125.131 99.608C124.283 98.52 123.835 97.144 123.787 95.48L123.763 94.76L123.787 94.04C123.835 92.392 124.283 91.024 125.131 89.936C125.979 88.832 127.235 88.28 128.898 88.28C130.547 88.28 131.843 88.864 132.787 90.032V84.512C132.787 84.352 132.835 84.224 132.931 84.128C133.043 84.016 133.179 83.96 133.339 83.96H134.491C134.651 83.96 134.779 84.016 134.875 84.128C134.987 84.224 135.043 84.352 135.043 84.512V100.448C135.043 100.608 134.987 100.744 134.875 100.856C134.779 100.952 134.651 101 134.491 101H133.411C133.251 101 133.115 100.952 133.003 100.856C132.907 100.744 132.859 100.608 132.859 100.448V99.44C131.931 100.64 130.611 101.24 128.898 101.24ZM129.403 99.296C130.507 99.296 131.331 98.936 131.875 98.216C132.435 97.48 132.739 96.608 132.787 95.6C132.803 95.424 132.811 95.12 132.811 94.688C132.811 94.24 132.803 93.928 132.787 93.752C132.755 92.808 132.451 91.984 131.875 91.28C131.299 90.576 130.475 90.224 129.403 90.224C128.267 90.224 127.435 90.576 126.907 91.28C126.395 91.984 126.115 92.912 126.067 94.064L126.043 94.76C126.043 97.784 127.163 99.296 129.403 99.296ZM139.164 101C139.004 101 138.868 100.952 138.756 100.856C138.66 100.744 138.612 100.608 138.612 100.448V89.096C138.612 88.936 138.66 88.8 138.756 88.688C138.868 88.576 139.004 88.52 139.164 88.52H140.268C140.428 88.52 140.564 88.576 140.676 88.688C140.788 88.8 140.844 88.936 140.844 89.096V90.152C141.5 89.064 142.62 88.52 144.204 88.52H145.14C145.3 88.52 145.428 88.576 145.524 88.688C145.636 88.784 145.692 88.912 145.692 89.072V90.056C145.692 90.216 145.636 90.344 145.524 90.44C145.428 90.536 145.3 90.584 145.14 90.584H143.7C142.836 90.584 142.156 90.84 141.66 91.352C141.164 91.848 140.916 92.528 140.916 93.392V100.448C140.916 100.608 140.86 100.744 140.748 100.856C140.636 100.952 140.5 101 140.34 101H139.164ZM152.607 101.24C150.847 101.24 149.479 100.744 148.503 99.752C147.543 98.76 147.031 97.44 146.967 95.792L146.943 94.76L146.967 93.728C147.031 92.096 147.551 90.784 148.527 89.792C149.503 88.784 150.863 88.28 152.607 88.28C154.351 88.28 155.711 88.784 156.687 89.792C157.663 90.784 158.183 92.096 158.247 93.728C158.263 93.904 158.271 94.248 158.271 94.76C158.271 95.272 158.263 95.616 158.247 95.792C158.183 97.44 157.663 98.76 156.687 99.752C155.727 100.744 154.367 101.24 152.607 101.24ZM152.607 99.392C153.615 99.392 154.407 99.072 154.983 98.432C155.575 97.792 155.895 96.872 155.943 95.672C155.959 95.512 155.967 95.208 155.967 94.76C155.967 94.312 155.959 94.008 155.943 93.848C155.895 92.648 155.575 91.728 154.983 91.088C154.407 90.448 153.615 90.128 152.607 90.128C151.599 90.128 150.799 90.448 150.207 91.088C149.615 91.728 149.303 92.648 149.271 93.848L149.247 94.76L149.271 95.672C149.303 96.872 149.615 97.792 150.207 98.432C150.799 99.072 151.599 99.392 152.607 99.392Z" fill="white"/>
<path d="M37.706 128.18C36.158 128.18 35.024 127.73 34.304 126.83C33.584 125.93 33.2 124.748 33.152 123.284C33.14 122.96 33.134 122.438 33.134 121.718C33.134 120.974 33.14 120.434 33.152 120.098C33.188 118.658 33.572 117.488 34.304 116.588C35.036 115.676 36.17 115.22 37.706 115.22C39.254 115.22 40.394 115.676 41.126 116.588C41.858 117.488 42.242 118.658 42.278 120.098C42.302 120.77 42.314 121.31 42.314 121.718C42.314 122.114 42.302 122.636 42.278 123.284C42.23 124.748 41.846 125.93 41.126 126.83C40.406 127.73 39.266 128.18 37.706 128.18ZM37.706 126.632C38.606 126.632 39.284 126.332 39.74 125.732C40.208 125.132 40.454 124.286 40.478 123.194C40.502 122.498 40.514 121.994 40.514 121.682C40.514 121.346 40.502 120.854 40.478 120.206C40.454 119.126 40.214 118.28 39.758 117.668C39.302 117.056 38.618 116.75 37.706 116.75C36.806 116.75 36.122 117.056 35.654 117.668C35.198 118.28 34.958 119.126 34.934 120.206L34.916 121.682L34.934 123.194C34.958 124.286 35.198 125.132 35.654 125.732C36.122 126.332 36.806 126.632 37.706 126.632ZM48.7898 128.18C47.8418 128.18 47.0198 128.03 46.3238 127.73C45.6398 127.418 45.1178 127.016 44.7578 126.524C44.4098 126.032 44.2238 125.516 44.1998 124.976C44.1998 124.868 44.2358 124.784 44.3078 124.724C44.3798 124.652 44.4698 124.616 44.5778 124.616H45.4598C45.7118 124.616 45.8798 124.748 45.9638 125.012C46.1198 125.612 46.4558 126.038 46.9718 126.29C47.4878 126.53 48.0938 126.65 48.7898 126.65C49.6418 126.65 50.3198 126.452 50.8238 126.056C51.3278 125.648 51.5798 125.066 51.5798 124.31C51.5798 122.858 50.6978 122.132 48.9338 122.132H47.2238C47.1038 122.132 47.0018 122.096 46.9178 122.024C46.8458 121.94 46.8098 121.838 46.8098 121.718V121.232C46.8098 121.064 46.8758 120.902 47.0078 120.746L50.4998 116.93H45.1898C45.0698 116.93 44.9678 116.894 44.8838 116.822C44.8118 116.738 44.7758 116.636 44.7758 116.516V115.832C44.7758 115.712 44.8118 115.61 44.8838 115.526C44.9678 115.442 45.0698 115.4 45.1898 115.4H52.3718C52.5038 115.4 52.6058 115.442 52.6778 115.526C52.7618 115.598 52.8038 115.7 52.8038 115.832V116.48C52.8038 116.624 52.7378 116.762 52.6058 116.894L49.1318 120.764L49.4198 120.782C50.6438 120.818 51.6098 121.136 52.3178 121.736C53.0258 122.336 53.3798 123.212 53.3798 124.364C53.3798 125.144 53.1818 125.822 52.7858 126.398C52.3898 126.974 51.8438 127.418 51.1478 127.73C50.4518 128.03 49.6658 128.18 48.7898 128.18ZM61.4543 128C61.3343 128 61.2323 127.964 61.1483 127.892C61.0763 127.808 61.0403 127.706 61.0403 127.586V124.994H55.2083C55.0883 124.994 54.9863 124.958 54.9023 124.886C54.8303 124.802 54.7943 124.7 54.7943 124.58V123.86C54.7943 123.68 54.8603 123.5 54.9923 123.32L60.3923 115.706C60.4523 115.61 60.5423 115.538 60.6623 115.49C60.7823 115.43 60.9143 115.4 61.0583 115.4H62.3543C62.4743 115.4 62.5703 115.442 62.6423 115.526C62.7263 115.598 62.7683 115.694 62.7683 115.814V123.428H64.3883C64.5083 123.428 64.6103 123.47 64.6943 123.554C64.7783 123.626 64.8203 123.722 64.8203 123.842V124.58C64.8203 124.7 64.7783 124.802 64.6943 124.886C64.6223 124.958 64.5263 124.994 64.4063 124.994H62.7683V127.586C62.7683 127.706 62.7263 127.808 62.6423 127.892C62.5703 127.964 62.4743 128 62.3543 128H61.4543ZM61.0583 123.464V117.29L56.7203 123.464H61.0583ZM68.7494 128C68.6414 128 68.5514 127.964 68.4794 127.892C68.4194 127.808 68.3894 127.712 68.3894 127.604C68.3894 127.52 68.4134 127.442 68.4614 127.37L71.2154 123.536C70.9274 123.608 70.6034 123.644 70.2434 123.644C69.3914 123.632 68.6354 123.434 67.9754 123.05C67.3274 122.666 66.8294 122.156 66.4814 121.52C66.1334 120.884 65.9594 120.206 65.9594 119.486C65.9594 118.766 66.1274 118.082 66.4634 117.434C66.8114 116.774 67.3274 116.24 68.0114 115.832C68.6954 115.424 69.5234 115.22 70.4954 115.22C71.4674 115.22 72.2954 115.418 72.9794 115.814C73.6754 116.21 74.1974 116.732 74.5454 117.38C74.8934 118.028 75.0674 118.718 75.0674 119.45C75.0674 120.098 74.9534 120.674 74.7254 121.178C74.4974 121.67 74.1794 122.21 73.7714 122.798L70.2974 127.64C70.2134 127.748 70.1294 127.838 70.0454 127.91C69.9734 127.97 69.8654 128 69.7214 128H68.7494ZM70.4954 122.186C70.9994 122.186 71.4614 122.078 71.8814 121.862C72.3134 121.634 72.6554 121.316 72.9074 120.908C73.1594 120.488 73.2854 120.008 73.2854 119.468C73.2854 118.928 73.1594 118.454 72.9074 118.046C72.6554 117.626 72.3134 117.308 71.8814 117.092C71.4614 116.864 70.9994 116.75 70.4954 116.75C69.9914 116.75 69.5294 116.864 69.1094 117.092C68.6894 117.308 68.3534 117.626 68.1014 118.046C67.8614 118.454 67.7414 118.928 67.7414 119.468C67.7414 120.008 67.8614 120.488 68.1014 120.908C68.3534 121.316 68.6894 121.634 69.1094 121.862C69.5294 122.078 69.9914 122.186 70.4954 122.186ZM85.3254 128C85.2054 128 85.1034 127.964 85.0194 127.892C84.9474 127.808 84.9114 127.706 84.9114 127.586V117.506L81.9234 119.81C81.8394 119.882 81.7494 119.918 81.6534 119.918C81.5454 119.918 81.4434 119.858 81.3474 119.738L80.8794 119.144C80.8194 119.06 80.7894 118.976 80.7894 118.892C80.7894 118.748 80.8494 118.634 80.9694 118.55L84.8934 115.526C85.0254 115.442 85.1814 115.4 85.3614 115.4H86.2794C86.3994 115.4 86.4954 115.442 86.5674 115.526C86.6514 115.598 86.6934 115.694 86.6934 115.814V127.586C86.6934 127.706 86.6514 127.808 86.5674 127.892C86.4954 127.964 86.3994 128 86.2794 128H85.3254ZM93.7626 128.18C92.2146 128.18 91.0806 127.73 90.3606 126.83C89.6406 125.93 89.2566 124.748 89.2086 123.284C89.1966 122.96 89.1906 122.438 89.1906 121.718C89.1906 120.974 89.1966 120.434 89.2086 120.098C89.2446 118.658 89.6286 117.488 90.3606 116.588C91.0926 115.676 92.2266 115.22 93.7626 115.22C95.3106 115.22 96.4506 115.676 97.1826 116.588C97.9146 117.488 98.2986 118.658 98.3346 120.098C98.3586 120.77 98.3706 121.31 98.3706 121.718C98.3706 122.114 98.3586 122.636 98.3346 123.284C98.2866 124.748 97.9026 125.93 97.1826 126.83C96.4626 127.73 95.3226 128.18 93.7626 128.18ZM93.7626 126.632C94.6626 126.632 95.3406 126.332 95.7966 125.732C96.2646 125.132 96.5106 124.286 96.5346 123.194C96.5586 122.498 96.5706 121.994 96.5706 121.682C96.5706 121.346 96.5586 120.854 96.5346 120.206C96.5106 119.126 96.2706 118.28 95.8146 117.668C95.3586 117.056 94.6746 116.75 93.7626 116.75C92.8626 116.75 92.1786 117.056 91.7106 117.668C91.2546 118.28 91.0146 119.126 90.9906 120.206L90.9726 121.682L90.9906 123.194C91.0146 124.286 91.2546 125.132 91.7106 125.732C92.1786 126.332 92.8626 126.632 93.7626 126.632ZM100.778 128C100.658 128 100.556 127.964 100.472 127.892C100.4 127.808 100.364 127.706 100.364 127.586V127.01C100.364 126.734 100.514 126.47 100.814 126.218L104.63 122.402C105.554 121.634 106.19 121.01 106.538 120.53C106.886 120.038 107.06 119.522 107.06 118.982C107.06 118.286 106.862 117.74 106.466 117.344C106.082 116.948 105.518 116.75 104.774 116.75C104.078 116.75 103.52 116.96 103.1 117.38C102.68 117.788 102.422 118.334 102.326 119.018C102.302 119.162 102.242 119.27 102.146 119.342C102.062 119.402 101.966 119.432 101.858 119.432H100.922C100.814 119.432 100.724 119.402 100.652 119.342C100.58 119.27 100.544 119.186 100.544 119.09C100.568 118.442 100.742 117.824 101.066 117.236C101.39 116.636 101.864 116.15 102.488 115.778C103.124 115.394 103.886 115.202 104.774 115.202C106.13 115.202 107.15 115.556 107.834 116.264C108.53 116.96 108.878 117.848 108.878 118.928C108.878 119.684 108.686 120.368 108.302 120.98C107.93 121.58 107.348 122.228 106.556 122.924L103.1 126.434H108.716C108.848 126.434 108.95 126.476 109.022 126.56C109.106 126.632 109.148 126.728 109.148 126.848V127.586C109.148 127.706 109.106 127.808 109.022 127.892C108.938 127.964 108.836 128 108.716 128H100.778ZM113.521 128C113.413 128 113.323 127.964 113.251 127.892C113.191 127.808 113.161 127.712 113.161 127.604C113.161 127.52 113.185 127.442 113.233 127.37L115.987 123.536C115.699 123.608 115.375 123.644 115.015 123.644C114.163 123.632 113.407 123.434 112.747 123.05C112.099 122.666 111.601 122.156 111.253 121.52C110.905 120.884 110.731 120.206 110.731 119.486C110.731 118.766 110.899 118.082 111.235 117.434C111.583 116.774 112.099 116.24 112.783 115.832C113.467 115.424 114.295 115.22 115.267 115.22C116.239 115.22 117.067 115.418 117.751 115.814C118.447 116.21 118.969 116.732 119.317 117.38C119.665 118.028 119.839 118.718 119.839 119.45C119.839 120.098 119.725 120.674 119.497 121.178C119.269 121.67 118.951 122.21 118.543 122.798L115.069 127.64C114.985 127.748 114.901 127.838 114.817 127.91C114.745 127.97 114.637 128 114.493 128H113.521ZM115.267 122.186C115.771 122.186 116.233 122.078 116.653 121.862C117.085 121.634 117.427 121.316 117.679 120.908C117.931 120.488 118.057 120.008 118.057 119.468C118.057 118.928 117.931 118.454 117.679 118.046C117.427 117.626 117.085 117.308 116.653 117.092C116.233 116.864 115.771 116.75 115.267 116.75C114.763 116.75 114.301 116.864 113.881 117.092C113.461 117.308 113.125 117.626 112.873 118.046C112.633 118.454 112.513 118.928 112.513 119.468C112.513 120.008 112.633 120.488 112.873 120.908C113.125 121.316 113.461 121.634 113.881 121.862C114.301 122.078 114.763 122.186 115.267 122.186ZM130.493 128.18C129.545 128.18 128.723 128.03 128.027 127.73C127.343 127.418 126.821 127.016 126.461 126.524C126.113 126.032 125.927 125.516 125.903 124.976C125.903 124.868 125.939 124.784 126.011 124.724C126.083 124.652 126.173 124.616 126.281 124.616H127.163C127.415 124.616 127.583 124.748 127.667 125.012C127.823 125.612 128.159 126.038 128.675 126.29C129.191 126.53 129.797 126.65 130.493 126.65C131.345 126.65 132.023 126.452 132.527 126.056C133.031 125.648 133.283 125.066 133.283 124.31C133.283 122.858 132.401 122.132 130.637 122.132H128.927C128.807 122.132 128.705 122.096 128.621 122.024C128.549 121.94 128.513 121.838 128.513 121.718V121.232C128.513 121.064 128.579 120.902 128.711 120.746L132.203 116.93H126.893C126.773 116.93 126.671 116.894 126.587 116.822C126.515 116.738 126.479 116.636 126.479 116.516V115.832C126.479 115.712 126.515 115.61 126.587 115.526C126.671 115.442 126.773 115.4 126.893 115.4H134.075C134.207 115.4 134.309 115.442 134.381 115.526C134.465 115.598 134.507 115.7 134.507 115.832V116.48C134.507 116.624 134.441 116.762 134.309 116.894L130.835 120.764L131.123 120.782C132.347 120.818 133.313 121.136 134.021 121.736C134.729 122.336 135.083 123.212 135.083 124.364C135.083 125.144 134.885 125.822 134.489 126.398C134.093 126.974 133.547 127.418 132.851 127.73C132.155 128.03 131.369 128.18 130.493 128.18ZM139.413 128C139.305 128 139.215 127.964 139.143 127.892C139.083 127.808 139.053 127.712 139.053 127.604C139.053 127.52 139.077 127.442 139.125 127.37L141.879 123.536C141.591 123.608 141.267 123.644 140.907 123.644C140.055 123.632 139.299 123.434 138.639 123.05C137.991 122.666 137.493 122.156 137.145 121.52C136.797 120.884 136.623 120.206 136.623 119.486C136.623 118.766 136.791 118.082 137.127 117.434C137.475 116.774 137.991 116.24 138.675 115.832C139.359 115.424 140.187 115.22 141.159 115.22C142.131 115.22 142.959 115.418 143.643 115.814C144.339 116.21 144.861 116.732 145.209 117.38C145.557 118.028 145.731 118.718 145.731 119.45C145.731 120.098 145.617 120.674 145.389 121.178C145.161 121.67 144.843 122.21 144.435 122.798L140.961 127.64C140.877 127.748 140.793 127.838 140.709 127.91C140.637 127.97 140.529 128 140.385 128H139.413ZM141.159 122.186C141.663 122.186 142.125 122.078 142.545 121.862C142.977 121.634 143.319 121.316 143.571 120.908C143.823 120.488 143.949 120.008 143.949 119.468C143.949 118.928 143.823 118.454 143.571 118.046C143.319 117.626 142.977 117.308 142.545 117.092C142.125 116.864 141.663 116.75 141.159 116.75C140.655 116.75 140.193 116.864 139.773 117.092C139.353 117.308 139.017 117.626 138.765 118.046C138.525 118.454 138.405 118.928 138.405 119.468C138.405 120.008 138.525 120.488 138.765 120.908C139.017 121.316 139.353 121.634 139.773 121.862C140.193 122.078 140.655 122.186 141.159 122.186ZM152.315 128.18C150.767 128.18 149.633 127.73 148.913 126.83C148.193 125.93 147.809 124.748 147.761 123.284C147.749 122.96 147.743 122.438 147.743 121.718C147.743 120.974 147.749 120.434 147.761 120.098C147.797 118.658 148.181 117.488 148.913 116.588C149.645 115.676 150.779 115.22 152.315 115.22C153.863 115.22 155.003 115.676 155.735 116.588C156.467 117.488 156.851 118.658 156.887 120.098C156.911 120.77 156.923 121.31 156.923 121.718C156.923 122.114 156.911 122.636 156.887 123.284C156.839 124.748 156.455 125.93 155.735 126.83C155.015 127.73 153.875 128.18 152.315 128.18ZM152.315 126.632C153.215 126.632 153.893 126.332 154.349 125.732C154.817 125.132 155.063 124.286 155.087 123.194C155.111 122.498 155.123 121.994 155.123 121.682C155.123 121.346 155.111 120.854 155.087 120.206C155.063 119.126 154.823 118.28 154.367 117.668C153.911 117.056 153.227 116.75 152.315 116.75C151.415 116.75 150.731 117.056 150.263 117.668C149.807 118.28 149.567 119.126 149.543 120.206L149.525 121.682L149.543 123.194C149.567 124.286 149.807 125.132 150.263 125.732C150.731 126.332 151.415 126.632 152.315 126.632ZM163.003 128C162.883 128 162.781 127.964 162.697 127.892C162.625 127.808 162.589 127.706 162.589 127.586V117.506L159.601 119.81C159.517 119.882 159.427 119.918 159.331 119.918C159.223 119.918 159.121 119.858 159.025 119.738L158.557 119.144C158.497 119.06 158.467 118.976 158.467 118.892C158.467 118.748 158.527 118.634 158.647 118.55L162.571 115.526C162.703 115.442 162.859 115.4 163.039 115.4H163.957C164.077 115.4 164.173 115.442 164.245 115.526C164.329 115.598 164.371 115.694 164.371 115.814V127.586C164.371 127.706 164.329 127.808 164.245 127.892C164.173 127.964 164.077 128 163.957 128H163.003ZM175.114 128C174.994 128 174.892 127.964 174.808 127.892C174.736 127.808 174.7 127.706 174.7 127.586V117.506L171.712 119.81C171.628 119.882 171.538 119.918 171.442 119.918C171.334 119.918 171.232 119.858 171.136 119.738L170.668 119.144C170.608 119.06 170.578 118.976 170.578 118.892C170.578 118.748 170.638 118.634 170.758 118.55L174.682 115.526C174.814 115.442 174.97 115.4 175.15 115.4H176.068C176.188 115.4 176.284 115.442 176.356 115.526C176.44 115.598 176.482 115.694 176.482 115.814V127.586C176.482 127.706 176.44 127.808 176.356 127.892C176.284 127.964 176.188 128 176.068 128H175.114ZM182.814 128C182.694 128 182.592 127.964 182.508 127.892C182.436 127.808 182.4 127.706 182.4 127.586V117.506L179.412 119.81C179.328 119.882 179.238 119.918 179.142 119.918C179.034 119.918 178.932 119.858 178.836 119.738L178.368 119.144C178.308 119.06 178.278 118.976 178.278 118.892C178.278 118.748 178.338 118.634 178.458 118.55L182.382 115.526C182.514 115.442 182.67 115.4 182.85 115.4H183.768C183.888 115.4 183.984 115.442 184.056 115.526C184.14 115.598 184.182 115.694 184.182 115.814V127.586C184.182 127.706 184.14 127.808 184.056 127.892C183.984 127.964 183.888 128 183.768 128H182.814ZM186.841 128C186.721 128 186.619 127.964 186.535 127.892C186.463 127.808 186.427 127.706 186.427 127.586V127.01C186.427 126.734 186.577 126.47 186.877 126.218L190.693 122.402C191.617 121.634 192.253 121.01 192.601 120.53C192.949 120.038 193.123 119.522 193.123 118.982C193.123 118.286 192.925 117.74 192.529 117.344C192.145 116.948 191.581 116.75 190.837 116.75C190.141 116.75 189.583 116.96 189.163 117.38C188.743 117.788 188.485 118.334 188.389 119.018C188.365 119.162 188.305 119.27 188.209 119.342C188.125 119.402 188.029 119.432 187.921 119.432H186.985C186.877 119.432 186.787 119.402 186.715 119.342C186.643 119.27 186.607 119.186 186.607 119.09C186.631 118.442 186.805 117.824 187.129 117.236C187.453 116.636 187.927 116.15 188.551 115.778C189.187 115.394 189.949 115.202 190.837 115.202C192.193 115.202 193.213 115.556 193.897 116.264C194.593 116.96 194.941 117.848 194.941 118.928C194.941 119.684 194.749 120.368 194.365 120.98C193.993 121.58 193.411 122.228 192.619 122.924L189.163 126.434H194.779C194.911 126.434 195.013 126.476 195.085 126.56C195.169 126.632 195.211 126.728 195.211 126.848V127.586C195.211 127.706 195.169 127.808 195.085 127.892C195.001 127.964 194.899 128 194.779 128H186.841ZM201.473 128.18C200.525 128.18 199.703 128.03 199.007 127.73C198.323 127.418 197.801 127.016 197.441 126.524C197.093 126.032 196.907 125.516 196.883 124.976C196.883 124.868 196.919 124.784 196.991 124.724C197.063 124.652 197.153 124.616 197.261 124.616H198.143C198.395 124.616 198.563 124.748 198.647 125.012C198.803 125.612 199.139 126.038 199.655 126.29C200.171 126.53 200.777 126.65 201.473 126.65C202.325 126.65 203.003 126.452 203.507 126.056C204.011 125.648 204.263 125.066 204.263 124.31C204.263 122.858 203.381 122.132 201.617 122.132H199.907C199.787 122.132 199.685 122.096 199.601 122.024C199.529 121.94 199.493 121.838 199.493 121.718V121.232C199.493 121.064 199.559 120.902 199.691 120.746L203.183 116.93H197.873C197.753 116.93 197.651 116.894 197.567 116.822C197.495 116.738 197.459 116.636 197.459 116.516V115.832C197.459 115.712 197.495 115.61 197.567 115.526C197.651 115.442 197.753 115.4 197.873 115.4H205.055C205.187 115.4 205.289 115.442 205.361 115.526C205.445 115.598 205.487 115.7 205.487 115.832V116.48C205.487 116.624 205.421 116.762 205.289 116.894L201.815 120.764L202.103 120.782C203.327 120.818 204.293 121.136 205.001 121.736C205.709 122.336 206.063 123.212 206.063 124.364C206.063 125.144 205.865 125.822 205.469 126.398C205.073 126.974 204.527 127.418 203.831 127.73C203.135 128.03 202.349 128.18 201.473 128.18Z" fill="white"/>
<path d="M51.96 44.16C50.808 43.936 49.752 43.6 48.792 43.152C47.832 42.672 46.952 42.16 46.152 41.616C45.352 41.04 44.632 40.448 43.992 39.84C43.352 39.2 42.792 38.592 42.312 38.016L37.608 32.208C37.064 31.568 36.472 30.8 35.832 29.904C35.224 29.008 34.648 28.128 34.104 27.264C34.2 28.064 34.28 28.912 34.344 29.808C34.44 30.672 34.488 31.472 34.488 32.208V54H31.56V20.736H32.472L45.24 37.008C45.464 37.36 45.8 37.744 46.248 38.16L60.6 20.736H61.512V54H58.584V32.208C58.584 31.408 58.616 30.512 58.68 29.52C58.776 28.496 58.872 27.568 58.968 26.736C58.296 27.664 57.592 28.64 56.856 29.664C56.12 30.656 55.448 31.504 54.84 32.208L48.312 39.936C48.952 40.384 49.624 40.8 50.328 41.184C51.064 41.536 51.848 41.808 52.68 42L51.96 44.16ZM81.4538 20.688C82.8938 20.688 84.2058 20.896 85.3898 21.312C86.5738 21.728 87.5818 22.32 88.4138 23.088C89.2778 23.856 89.9498 24.768 90.4298 25.824C90.9098 26.88 91.1498 28.048 91.1498 29.328C91.1498 31.056 90.7338 32.512 89.9018 33.696C89.1018 34.848 87.9818 35.744 86.5418 36.384C88.3978 37.12 89.8698 38.272 90.9578 39.84C92.0778 41.376 92.6378 43.12 92.6378 45.072C92.6378 46.512 92.3818 47.808 91.8698 48.96C91.3578 50.112 90.6218 51.104 89.6618 51.936C88.7018 52.768 87.5178 53.408 86.1098 53.856C84.7338 54.304 83.1818 54.528 81.4538 54.528C79.9178 54.528 78.5578 54.496 77.3738 54.432C76.1898 54.4 75.1818 54.352 74.3498 54.288C73.3898 54.192 72.5418 54.096 71.8058 54V23.712C70.7818 23.552 69.8058 23.264 68.8778 22.848C67.9818 22.432 67.2138 21.776 66.5738 20.88L68.1578 19.248C68.8298 19.888 69.6298 20.368 70.5578 20.688C71.4858 21.008 72.5898 21.168 73.8698 21.168C74.6058 21.168 75.2298 21.152 75.7418 21.12C76.2538 21.056 76.7658 20.992 77.2778 20.928C77.7898 20.864 78.3498 20.816 78.9578 20.784C79.5978 20.72 80.4298 20.688 81.4538 20.688ZM74.7338 37.968V51.648C75.6618 51.712 76.7018 51.776 77.8538 51.84C79.0058 51.872 80.1578 51.888 81.3098 51.888C83.9978 51.888 86.0778 51.28 87.5498 50.064C89.0538 48.848 89.8058 47.12 89.8058 44.88C89.8058 43.92 89.5978 43.024 89.1818 42.192C88.7978 41.36 88.2538 40.64 87.5498 40.032C86.8458 39.392 85.9978 38.896 85.0058 38.544C84.0138 38.192 82.9258 38 81.7418 37.968H81.5498H74.7338ZM81.3098 23.328C80.2858 23.328 79.4698 23.36 78.8618 23.424C78.2538 23.456 77.7258 23.504 77.2778 23.568C76.8618 23.6 76.4618 23.648 76.0778 23.712C75.6938 23.776 75.2458 23.808 74.7338 23.808V35.328H81.4058C83.4218 35.328 85.0698 34.816 86.3498 33.792C87.6298 32.736 88.2698 31.248 88.2698 29.328C88.2698 27.408 87.6298 25.936 86.3498 24.912C85.1018 23.856 83.4218 23.328 81.3098 23.328Z" fill="white"/>
<path d="M36.968 156C36.848 156 36.746 155.964 36.662 155.892C36.59 155.808 36.554 155.706 36.554 155.586V145.506L33.566 147.81C33.482 147.882 33.392 147.918 33.296 147.918C33.188 147.918 33.086 147.858 32.99 147.738L32.522 147.144C32.462 147.06 32.432 146.976 32.432 146.892C32.432 146.748 32.492 146.634 32.612 146.55L36.536 143.526C36.668 143.442 36.824 143.4 37.004 143.4H37.922C38.042 143.4 38.138 143.442 38.21 143.526C38.294 143.598 38.336 143.694 38.336 143.814V155.586C38.336 155.706 38.294 155.808 38.21 155.892C38.138 155.964 38.042 156 37.922 156H36.968ZM45.4052 156.18C43.8572 156.18 42.7232 155.73 42.0032 154.83C41.2832 153.93 40.8992 152.748 40.8512 151.284C40.8392 150.96 40.8332 150.438 40.8332 149.718C40.8332 148.974 40.8392 148.434 40.8512 148.098C40.8872 146.658 41.2712 145.488 42.0032 144.588C42.7352 143.676 43.8692 143.22 45.4052 143.22C46.9532 143.22 48.0932 143.676 48.8252 144.588C49.5572 145.488 49.9412 146.658 49.9772 148.098C50.0012 148.77 50.0132 149.31 50.0132 149.718C50.0132 150.114 50.0012 150.636 49.9772 151.284C49.9292 152.748 49.5452 153.93 48.8252 154.83C48.1052 155.73 46.9652 156.18 45.4052 156.18ZM45.4052 154.632C46.3052 154.632 46.9832 154.332 47.4392 153.732C47.9072 153.132 48.1532 152.286 48.1772 151.194C48.2012 150.498 48.2132 149.994 48.2132 149.682C48.2132 149.346 48.2012 148.854 48.1772 148.206C48.1532 147.126 47.9132 146.28 47.4572 145.668C47.0012 145.056 46.3172 144.75 45.4052 144.75C44.5052 144.75 43.8212 145.056 43.3532 145.668C42.8972 146.28 42.6572 147.126 42.6332 148.206L42.6152 149.682L42.6332 151.194C42.6572 152.286 42.8972 153.132 43.3532 153.732C43.8212 154.332 44.5052 154.632 45.4052 154.632ZM51.6014 157.512C51.5054 157.512 51.4214 157.476 51.3494 157.404C51.2774 157.332 51.2414 157.248 51.2414 157.152C51.2414 157.104 51.2594 157.032 51.2954 156.936L57.4514 142.176C57.5474 141.96 57.7034 141.852 57.9194 141.852H58.6214C58.7174 141.852 58.8014 141.888 58.8734 141.96C58.9454 142.032 58.9814 142.116 58.9814 142.212C58.9814 142.296 58.9694 142.368 58.9454 142.428L52.7714 157.188C52.6754 157.404 52.5194 157.512 52.3034 157.512H51.6014ZM60.5069 156C60.3869 156 60.2849 155.964 60.2009 155.892C60.1289 155.808 60.0929 155.706 60.0929 155.586V155.01C60.0929 154.734 60.2429 154.47 60.5429 154.218L64.3589 150.402C65.2829 149.634 65.9189 149.01 66.2669 148.53C66.6149 148.038 66.7889 147.522 66.7889 146.982C66.7889 146.286 66.5909 145.74 66.1949 145.344C65.8109 144.948 65.2469 144.75 64.5029 144.75C63.8069 144.75 63.2489 144.96 62.8289 145.38C62.4089 145.788 62.1509 146.334 62.0549 147.018C62.0309 147.162 61.9709 147.27 61.8749 147.342C61.7909 147.402 61.6949 147.432 61.5869 147.432H60.6509C60.5429 147.432 60.4529 147.402 60.3809 147.342C60.3089 147.27 60.2729 147.186 60.2729 147.09C60.2969 146.442 60.4709 145.824 60.7949 145.236C61.1189 144.636 61.5929 144.15 62.2169 143.778C62.8529 143.394 63.6149 143.202 64.5029 143.202C65.8589 143.202 66.8789 143.556 67.5629 144.264C68.2589 144.96 68.6069 145.848 68.6069 146.928C68.6069 147.684 68.4149 148.368 68.0309 148.98C67.6589 149.58 67.0769 150.228 66.2849 150.924L62.8289 154.434H68.4449C68.5769 154.434 68.6789 154.476 68.7509 154.56C68.8349 154.632 68.8769 154.728 68.8769 154.848V155.586C68.8769 155.706 68.8349 155.808 68.7509 155.892C68.6669 155.964 68.5649 156 68.4449 156H60.5069ZM75.4994 156.18C74.5634 156.18 73.7414 156.03 73.0334 155.73C72.3254 155.418 71.7734 154.974 71.3774 154.398C70.9814 153.822 70.7834 153.15 70.7834 152.382C70.7834 151.674 70.9574 151.056 71.3054 150.528C71.6534 149.988 72.1274 149.574 72.7274 149.286C72.2474 149.01 71.8754 148.65 71.6114 148.206C71.3594 147.75 71.2334 147.222 71.2334 146.622C71.2334 145.566 71.6174 144.738 72.3854 144.138C73.1654 143.526 74.2034 143.22 75.4994 143.22C76.7834 143.22 77.8094 143.526 78.5774 144.138C79.3574 144.738 79.7474 145.56 79.7474 146.604C79.7474 147.204 79.6154 147.732 79.3514 148.188C79.0994 148.632 78.7394 148.998 78.2714 149.286C78.8714 149.574 79.3454 149.988 79.6934 150.528C80.0414 151.056 80.2154 151.674 80.2154 152.382C80.2154 153.15 80.0174 153.822 79.6214 154.398C79.2254 154.974 78.6674 155.418 77.9474 155.73C77.2394 156.03 76.4234 156.18 75.4994 156.18ZM75.4994 148.638C76.2194 148.626 76.8254 148.44 77.3174 148.08C77.8094 147.72 78.0554 147.246 78.0554 146.658C78.0554 146.058 77.8094 145.578 77.3174 145.218C76.8374 144.846 76.2314 144.66 75.4994 144.66C74.7554 144.66 74.1374 144.84 73.6454 145.2C73.1654 145.56 72.9254 146.046 72.9254 146.658C72.9254 147.258 73.1654 147.738 73.6454 148.098C74.1374 148.458 74.7554 148.638 75.4994 148.638ZM75.4994 154.74C76.3394 154.74 77.0414 154.524 77.6054 154.092C78.1694 153.66 78.4514 153.09 78.4514 152.382C78.4514 151.674 78.1694 151.11 77.6054 150.69C77.0414 150.27 76.3394 150.06 75.4994 150.06C74.6474 150.06 73.9394 150.27 73.3754 150.69C72.8114 151.11 72.5294 151.674 72.5294 152.382C72.5294 153.09 72.8114 153.66 73.3754 154.092C73.9394 154.524 74.6474 154.74 75.4994 154.74Z" fill="white"/>
<rect x="271" y="30" width="28" height="18" rx="5" fill="#C4C4C4"/>
<path d="M290.5 133C290.5 139.332 285.147 144.5 278.5 144.5C271.853 144.5 266.5 139.332 266.5 133C266.5 126.668 271.853 121.5 278.5 121.5C285.147 121.5 290.5 126.668 290.5 133Z" fill="#FF3434" stroke="white"/>
<path d="M302.5 133C302.5 139.332 297.147 144.5 290.5 144.5C283.853 144.5 278.5 139.332 278.5 133C278.5 126.668 283.853 121.5 290.5 121.5C297.147 121.5 302.5 126.668 302.5 133Z" fill="#FF7C03" stroke="white"/>
</svg>
