<svg width="321" height="171" viewBox="0 0 321 171" fill="none" xmlns="http://www.w3.org/2000/svg">
<rect width="321" height="171" rx="12" fill="url(#paint0_linear_224_17)"/>
<path d="M34.08 101.24C32.336 101.24 30.888 100.808 29.736 99.944C28.584 99.08 27.976 97.816 27.912 96.152C27.912 96.008 27.96 95.888 28.056 95.792C28.152 95.68 28.28 95.624 28.44 95.624H29.736C30.072 95.624 30.28 95.808 30.36 96.176C30.456 97.2 30.848 97.96 31.536 98.456C32.224 98.952 33.088 99.2 34.128 99.2C35.328 99.2 36.248 98.808 36.888 98.024C37.544 97.224 37.872 96.152 37.872 94.808V86.288H29.352C29.192 86.288 29.056 86.24 28.944 86.144C28.848 86.032 28.8 85.896 28.8 85.736V84.752C28.8 84.592 28.848 84.464 28.944 84.368C29.056 84.256 29.192 84.2 29.352 84.2H39.696C39.872 84.2 40.008 84.256 40.104 84.368C40.216 84.464 40.272 84.6 40.272 84.776V94.856C40.272 96.808 39.72 98.36 38.616 99.512C37.528 100.664 36.016 101.24 34.08 101.24ZM49.0989 101.24C47.3389 101.24 45.9709 100.744 44.9949 99.752C44.0349 98.76 43.5229 97.44 43.4589 95.792L43.4349 94.76L43.4589 93.728C43.5229 92.096 44.0429 90.784 45.0189 89.792C45.9949 88.784 47.3549 88.28 49.0989 88.28C50.8429 88.28 52.2029 88.784 53.1789 89.792C54.1549 90.784 54.6749 92.096 54.7389 93.728C54.7549 93.904 54.7629 94.248 54.7629 94.76C54.7629 95.272 54.7549 95.616 54.7389 95.792C54.6749 97.44 54.1549 98.76 53.1789 99.752C52.2189 100.744 50.8589 101.24 49.0989 101.24ZM49.0989 99.392C50.1069 99.392 50.8989 99.072 51.4749 98.432C52.0669 97.792 52.3869 96.872 52.4349 95.672C52.4509 95.512 52.4589 95.208 52.4589 94.76C52.4589 94.312 52.4509 94.008 52.4349 93.848C52.3869 92.648 52.0669 91.728 51.4749 91.088C50.8989 90.448 50.1069 90.128 49.0989 90.128C48.0909 90.128 47.2909 90.448 46.6989 91.088C46.1069 91.728 45.7949 92.648 45.7629 93.848L45.7389 94.76L45.7629 95.672C45.7949 96.872 46.1069 97.792 46.6989 98.432C47.2909 99.072 48.0909 99.392 49.0989 99.392ZM61.2482 101.24C60.4642 101.24 59.7362 101.08 59.0642 100.76C58.3922 100.44 57.8562 100.008 57.4562 99.464C57.0722 98.904 56.8802 98.288 56.8802 97.616C56.8802 96.56 57.3122 95.696 58.1762 95.024C59.0562 94.336 60.2402 93.888 61.7282 93.68L65.3042 93.176V92.48C65.3042 90.848 64.3682 90.032 62.4962 90.032C61.7922 90.032 61.2162 90.184 60.7682 90.488C60.3202 90.776 59.9842 91.12 59.7602 91.52C59.7122 91.664 59.6482 91.768 59.5682 91.832C59.5042 91.896 59.4082 91.928 59.2802 91.928H58.2482C58.1042 91.928 57.9762 91.88 57.8642 91.784C57.7682 91.672 57.7202 91.544 57.7202 91.4C57.7362 91.016 57.9122 90.584 58.2482 90.104C58.6002 89.608 59.1362 89.184 59.8562 88.832C60.5762 88.464 61.4642 88.28 62.5202 88.28C64.3122 88.28 65.6002 88.704 66.3842 89.552C67.1682 90.384 67.5602 91.424 67.5602 92.672V100.448C67.5602 100.608 67.5042 100.744 67.3922 100.856C67.2962 100.952 67.1682 101 67.0082 101H65.9042C65.7442 101 65.6082 100.952 65.4962 100.856C65.4002 100.744 65.3522 100.608 65.3522 100.448V99.416C65.0002 99.928 64.4882 100.36 63.8162 100.712C63.1442 101.064 62.2882 101.24 61.2482 101.24ZM61.7522 99.44C62.7922 99.44 63.6402 99.104 64.2962 98.432C64.9682 97.744 65.3042 96.76 65.3042 95.48V94.808L62.5202 95.216C61.3842 95.376 60.5282 95.648 59.9522 96.032C59.3762 96.4 59.0882 96.872 59.0882 97.448C59.0882 98.088 59.3522 98.584 59.8802 98.936C60.4082 99.272 61.0322 99.44 61.7522 99.44ZM63.6962 86.84C63.4082 86.84 63.1602 86.8 62.9522 86.72C62.7442 86.64 62.5122 86.52 62.2562 86.36C62.1282 86.28 61.9922 86.208 61.8482 86.144C61.7042 86.064 61.5602 86.024 61.4162 86.024C61.2882 86.024 61.1842 86.048 61.1042 86.096C61.0402 86.144 60.9842 86.2 60.9362 86.264C60.8882 86.328 60.8562 86.368 60.8402 86.384C60.7122 86.608 60.5602 86.72 60.3842 86.72H59.6162C59.5042 86.72 59.4082 86.68 59.3282 86.6C59.2482 86.52 59.2082 86.432 59.2082 86.336C59.2082 85.808 59.3922 85.32 59.7602 84.872C60.1282 84.424 60.6082 84.2 61.2002 84.2C61.4882 84.2 61.7282 84.24 61.9202 84.32C62.1282 84.4 62.3762 84.52 62.6642 84.68C62.6962 84.696 62.8002 84.752 62.9762 84.848C63.1522 84.96 63.3362 85.016 63.5282 85.016C63.6722 85.016 63.7762 84.984 63.8402 84.92C63.9202 84.856 64.0002 84.76 64.0802 84.632C64.1442 84.52 64.2082 84.44 64.2722 84.392C64.3362 84.328 64.4242 84.296 64.5362 84.296H65.3042C65.4322 84.296 65.5282 84.336 65.5922 84.416C65.6722 84.496 65.7122 84.592 65.7122 84.704C65.7122 85.216 65.5202 85.704 65.1362 86.168C64.7682 86.616 64.2882 86.84 63.6962 86.84ZM76.1224 101.24C74.3624 101.24 72.9944 100.744 72.0184 99.752C71.0584 98.76 70.5464 97.44 70.4824 95.792L70.4584 94.76L70.4824 93.728C70.5464 92.096 71.0664 90.784 72.0424 89.792C73.0184 88.784 74.3784 88.28 76.1224 88.28C77.8664 88.28 79.2264 88.784 80.2024 89.792C81.1784 90.784 81.6984 92.096 81.7624 93.728C81.7784 93.904 81.7864 94.248 81.7864 94.76C81.7864 95.272 81.7784 95.616 81.7624 95.792C81.6984 97.44 81.1784 98.76 80.2024 99.752C79.2424 100.744 77.8824 101.24 76.1224 101.24ZM76.1224 99.392C77.1304 99.392 77.9224 99.072 78.4984 98.432C79.0904 97.792 79.4104 96.872 79.4584 95.672C79.4744 95.512 79.4824 95.208 79.4824 94.76C79.4824 94.312 79.4744 94.008 79.4584 93.848C79.4104 92.648 79.0904 91.728 78.4984 91.088C77.9224 90.448 77.1304 90.128 76.1224 90.128C75.1144 90.128 74.3144 90.448 73.7224 91.088C73.1304 91.728 72.8184 92.648 72.7864 93.848L72.7624 94.76L72.7864 95.672C72.8184 96.872 73.1304 97.792 73.7224 98.432C74.3144 99.072 75.1144 99.392 76.1224 99.392ZM91.5384 101C91.3784 101 91.2424 100.952 91.1304 100.856C91.0344 100.744 90.9864 100.608 90.9864 100.448V84.776C90.9864 84.6 91.0344 84.464 91.1304 84.368C91.2424 84.256 91.3784 84.2 91.5384 84.2H97.6344C99.4424 84.2 100.866 84.64 101.906 85.52C102.946 86.4 103.466 87.672 103.466 89.336C103.466 91 102.946 92.272 101.906 93.152C100.882 94.016 99.4584 94.448 97.6344 94.448H93.3864V100.448C93.3864 100.608 93.3304 100.744 93.2184 100.856C93.1064 100.952 92.9704 101 92.8104 101H91.5384ZM97.5144 92.432C98.6824 92.432 99.5624 92.168 100.154 91.64C100.762 91.112 101.066 90.344 101.066 89.336C101.066 88.328 100.77 87.56 100.178 87.032C99.5864 86.488 98.6984 86.216 97.5144 86.216H93.3624V92.432H97.5144ZM110.901 101.24C109.253 101.24 107.933 100.736 106.941 99.728C105.965 98.704 105.429 97.312 105.333 95.552L105.309 94.736L105.333 93.944C105.445 92.216 105.989 90.84 106.965 89.816C107.957 88.792 109.261 88.28 110.877 88.28C112.653 88.28 114.029 88.848 115.005 89.984C115.981 91.104 116.469 92.624 116.469 94.544V94.952C116.469 95.112 116.413 95.248 116.301 95.36C116.205 95.456 116.077 95.504 115.917 95.504H107.613V95.72C107.661 96.76 107.973 97.648 108.549 98.384C109.141 99.104 109.917 99.464 110.877 99.464C111.613 99.464 112.213 99.32 112.677 99.032C113.157 98.728 113.509 98.416 113.733 98.096C113.877 97.904 113.981 97.792 114.045 97.76C114.125 97.712 114.261 97.688 114.453 97.688H115.629C115.773 97.688 115.893 97.728 115.989 97.808C116.085 97.888 116.133 98 116.133 98.144C116.133 98.496 115.909 98.92 115.461 99.416C115.029 99.912 114.413 100.344 113.613 100.712C112.829 101.064 111.925 101.24 110.901 101.24ZM114.189 93.848V93.776C114.189 92.672 113.885 91.776 113.277 91.088C112.685 90.384 111.885 90.032 110.877 90.032C109.869 90.032 109.069 90.384 108.477 91.088C107.901 91.776 107.613 92.672 107.613 93.776V93.848H114.189ZM123.898 101.24C122.235 101.24 120.979 100.696 120.131 99.608C119.283 98.52 118.835 97.144 118.787 95.48L118.763 94.76L118.787 94.04C118.835 92.392 119.283 91.024 120.131 89.936C120.979 88.832 122.235 88.28 123.898 88.28C125.547 88.28 126.843 88.864 127.787 90.032V84.512C127.787 84.352 127.835 84.224 127.931 84.128C128.043 84.016 128.179 83.96 128.339 83.96H129.491C129.651 83.96 129.779 84.016 129.875 84.128C129.987 84.224 130.043 84.352 130.043 84.512V100.448C130.043 100.608 129.987 100.744 129.875 100.856C129.779 100.952 129.651 101 129.491 101H128.411C128.251 101 128.115 100.952 128.003 100.856C127.907 100.744 127.859 100.608 127.859 100.448V99.44C126.931 100.64 125.611 101.24 123.898 101.24ZM124.403 99.296C125.507 99.296 126.331 98.936 126.875 98.216C127.435 97.48 127.739 96.608 127.787 95.6C127.803 95.424 127.811 95.12 127.811 94.688C127.811 94.24 127.803 93.928 127.787 93.752C127.755 92.808 127.451 91.984 126.875 91.28C126.299 90.576 125.475 90.224 124.403 90.224C123.267 90.224 122.435 90.576 121.907 91.28C121.395 91.984 121.115 92.912 121.067 94.064L121.043 94.76C121.043 97.784 122.163 99.296 124.403 99.296ZM134.164 101C134.004 101 133.868 100.952 133.756 100.856C133.66 100.744 133.612 100.608 133.612 100.448V89.096C133.612 88.936 133.66 88.8 133.756 88.688C133.868 88.576 134.004 88.52 134.164 88.52H135.268C135.428 88.52 135.564 88.576 135.676 88.688C135.788 88.8 135.844 88.936 135.844 89.096V90.152C136.5 89.064 137.62 88.52 139.204 88.52H140.14C140.3 88.52 140.428 88.576 140.524 88.688C140.636 88.784 140.692 88.912 140.692 89.072V90.056C140.692 90.216 140.636 90.344 140.524 90.44C140.428 90.536 140.3 90.584 140.14 90.584H138.7C137.836 90.584 137.156 90.84 136.66 91.352C136.164 91.848 135.916 92.528 135.916 93.392V100.448C135.916 100.608 135.86 100.744 135.748 100.856C135.636 100.952 135.5 101 135.34 101H134.164ZM147.607 101.24C145.847 101.24 144.479 100.744 143.503 99.752C142.543 98.76 142.031 97.44 141.967 95.792L141.943 94.76L141.967 93.728C142.031 92.096 142.551 90.784 143.527 89.792C144.503 88.784 145.863 88.28 147.607 88.28C149.351 88.28 150.711 88.784 151.687 89.792C152.663 90.784 153.183 92.096 153.247 93.728C153.263 93.904 153.271 94.248 153.271 94.76C153.271 95.272 153.263 95.616 153.247 95.792C153.183 97.44 152.663 98.76 151.687 99.752C150.727 100.744 149.367 101.24 147.607 101.24ZM147.607 99.392C148.615 99.392 149.407 99.072 149.983 98.432C150.575 97.792 150.895 96.872 150.943 95.672C150.959 95.512 150.967 95.208 150.967 94.76C150.967 94.312 150.959 94.008 150.943 93.848C150.895 92.648 150.575 91.728 149.983 91.088C149.407 90.448 148.615 90.128 147.607 90.128C146.599 90.128 145.799 90.448 145.207 91.088C144.615 91.728 144.303 92.648 144.271 93.848L144.247 94.76L144.271 95.672C144.303 96.872 144.615 97.792 145.207 98.432C145.799 99.072 146.599 99.392 147.607 99.392Z" fill="#636363"/>
<path d="M285.5 133C285.5 139.332 280.147 144.5 273.5 144.5C266.853 144.5 261.5 139.332 261.5 133C261.5 126.668 266.853 121.5 273.5 121.5C280.147 121.5 285.5 126.668 285.5 133Z" fill="#FF3434" stroke="white"/>
<path d="M297.5 133C297.5 139.332 292.147 144.5 285.5 144.5C278.853 144.5 273.5 139.332 273.5 133C273.5 126.668 278.853 121.5 285.5 121.5C292.147 121.5 297.5 126.668 297.5 133Z" fill="#FF7C03" stroke="white"/>
<path d="M31.968 156C31.848 156 31.746 155.964 31.662 155.892C31.59 155.808 31.554 155.706 31.554 155.586V145.506L28.566 147.81C28.482 147.882 28.392 147.918 28.296 147.918C28.188 147.918 28.086 147.858 27.99 147.738L27.522 147.144C27.462 147.06 27.432 146.976 27.432 146.892C27.432 146.748 27.492 146.634 27.612 146.55L31.536 143.526C31.668 143.442 31.824 143.4 32.004 143.4H32.922C33.042 143.4 33.138 143.442 33.21 143.526C33.294 143.598 33.336 143.694 33.336 143.814V155.586C33.336 155.706 33.294 155.808 33.21 155.892C33.138 155.964 33.042 156 32.922 156H31.968ZM40.4052 156.18C38.8572 156.18 37.7232 155.73 37.0032 154.83C36.2832 153.93 35.8992 152.748 35.8512 151.284C35.8392 150.96 35.8332 150.438 35.8332 149.718C35.8332 148.974 35.8392 148.434 35.8512 148.098C35.8872 146.658 36.2712 145.488 37.0032 144.588C37.7352 143.676 38.8692 143.22 40.4052 143.22C41.9532 143.22 43.0932 143.676 43.8252 144.588C44.5572 145.488 44.9412 146.658 44.9772 148.098C45.0012 148.77 45.0132 149.31 45.0132 149.718C45.0132 150.114 45.0012 150.636 44.9772 151.284C44.9292 152.748 44.5452 153.93 43.8252 154.83C43.1052 155.73 41.9652 156.18 40.4052 156.18ZM40.4052 154.632C41.3052 154.632 41.9832 154.332 42.4392 153.732C42.9072 153.132 43.1532 152.286 43.1772 151.194C43.2012 150.498 43.2132 149.994 43.2132 149.682C43.2132 149.346 43.2012 148.854 43.1772 148.206C43.1532 147.126 42.9132 146.28 42.4572 145.668C42.0012 145.056 41.3172 144.75 40.4052 144.75C39.5052 144.75 38.8212 145.056 38.3532 145.668C37.8972 146.28 37.6572 147.126 37.6332 148.206L37.6152 149.682L37.6332 151.194C37.6572 152.286 37.8972 153.132 38.3532 153.732C38.8212 154.332 39.5052 154.632 40.4052 154.632ZM46.6014 157.512C46.5054 157.512 46.4214 157.476 46.3494 157.404C46.2774 157.332 46.2414 157.248 46.2414 157.152C46.2414 157.104 46.2594 157.032 46.2954 156.936L52.4514 142.176C52.5474 141.96 52.7034 141.852 52.9194 141.852H53.6214C53.7174 141.852 53.8014 141.888 53.8734 141.96C53.9454 142.032 53.9814 142.116 53.9814 142.212C53.9814 142.296 53.9694 142.368 53.9454 142.428L47.7714 157.188C47.6754 157.404 47.5194 157.512 47.3034 157.512H46.6014ZM55.5069 156C55.3869 156 55.2849 155.964 55.2009 155.892C55.1289 155.808 55.0929 155.706 55.0929 155.586V155.01C55.0929 154.734 55.2429 154.47 55.5429 154.218L59.3589 150.402C60.2829 149.634 60.9189 149.01 61.2669 148.53C61.6149 148.038 61.7889 147.522 61.7889 146.982C61.7889 146.286 61.5909 145.74 61.1949 145.344C60.8109 144.948 60.2469 144.75 59.5029 144.75C58.8069 144.75 58.2489 144.96 57.8289 145.38C57.4089 145.788 57.1509 146.334 57.0549 147.018C57.0309 147.162 56.9709 147.27 56.8749 147.342C56.7909 147.402 56.6949 147.432 56.5869 147.432H55.6509C55.5429 147.432 55.4529 147.402 55.3809 147.342C55.3089 147.27 55.2729 147.186 55.2729 147.09C55.2969 146.442 55.4709 145.824 55.7949 145.236C56.1189 144.636 56.5929 144.15 57.2169 143.778C57.8529 143.394 58.6149 143.202 59.5029 143.202C60.8589 143.202 61.8789 143.556 62.5629 144.264C63.2589 144.96 63.6069 145.848 63.6069 146.928C63.6069 147.684 63.4149 148.368 63.0309 148.98C62.6589 149.58 62.0769 150.228 61.2849 150.924L57.8289 154.434H63.4449C63.5769 154.434 63.6789 154.476 63.7509 154.56C63.8349 154.632 63.8769 154.728 63.8769 154.848V155.586C63.8769 155.706 63.8349 155.808 63.7509 155.892C63.6669 155.964 63.5649 156 63.4449 156H55.5069ZM70.4994 156.18C69.5634 156.18 68.7414 156.03 68.0334 155.73C67.3254 155.418 66.7734 154.974 66.3774 154.398C65.9814 153.822 65.7834 153.15 65.7834 152.382C65.7834 151.674 65.9574 151.056 66.3054 150.528C66.6534 149.988 67.1274 149.574 67.7274 149.286C67.2474 149.01 66.8754 148.65 66.6114 148.206C66.3594 147.75 66.2334 147.222 66.2334 146.622C66.2334 145.566 66.6174 144.738 67.3854 144.138C68.1654 143.526 69.2034 143.22 70.4994 143.22C71.7834 143.22 72.8094 143.526 73.5774 144.138C74.3574 144.738 74.7474 145.56 74.7474 146.604C74.7474 147.204 74.6154 147.732 74.3514 148.188C74.0994 148.632 73.7394 148.998 73.2714 149.286C73.8714 149.574 74.3454 149.988 74.6934 150.528C75.0414 151.056 75.2154 151.674 75.2154 152.382C75.2154 153.15 75.0174 153.822 74.6214 154.398C74.2254 154.974 73.6674 155.418 72.9474 155.73C72.2394 156.03 71.4234 156.18 70.4994 156.18ZM70.4994 148.638C71.2194 148.626 71.8254 148.44 72.3174 148.08C72.8094 147.72 73.0554 147.246 73.0554 146.658C73.0554 146.058 72.8094 145.578 72.3174 145.218C71.8374 144.846 71.2314 144.66 70.4994 144.66C69.7554 144.66 69.1374 144.84 68.6454 145.2C68.1654 145.56 67.9254 146.046 67.9254 146.658C67.9254 147.258 68.1654 147.738 68.6454 148.098C69.1374 148.458 69.7554 148.638 70.4994 148.638ZM70.4994 154.74C71.3394 154.74 72.0414 154.524 72.6054 154.092C73.1694 153.66 73.4514 153.09 73.4514 152.382C73.4514 151.674 73.1694 151.11 72.6054 150.69C72.0414 150.27 71.3394 150.06 70.4994 150.06C69.6474 150.06 68.9394 150.27 68.3754 150.69C67.8114 151.11 67.5294 151.674 67.5294 152.382C67.5294 153.09 67.8114 153.66 68.3754 154.092C68.9394 154.524 69.6474 154.74 70.4994 154.74Z" fill="#636363"/>
<rect x="266" y="30" width="28" height="18" rx="5" fill="#6C6C6C"/>
<path d="M32.706 128.18C31.158 128.18 30.024 127.73 29.304 126.83C28.584 125.93 28.2 124.748 28.152 123.284C28.14 122.96 28.134 122.438 28.134 121.718C28.134 120.974 28.14 120.434 28.152 120.098C28.188 118.658 28.572 117.488 29.304 116.588C30.036 115.676 31.17 115.22 32.706 115.22C34.254 115.22 35.394 115.676 36.126 116.588C36.858 117.488 37.242 118.658 37.278 120.098C37.302 120.77 37.314 121.31 37.314 121.718C37.314 122.114 37.302 122.636 37.278 123.284C37.23 124.748 36.846 125.93 36.126 126.83C35.406 127.73 34.266 128.18 32.706 128.18ZM32.706 126.632C33.606 126.632 34.284 126.332 34.74 125.732C35.208 125.132 35.454 124.286 35.478 123.194C35.502 122.498 35.514 121.994 35.514 121.682C35.514 121.346 35.502 120.854 35.478 120.206C35.454 119.126 35.214 118.28 34.758 117.668C34.302 117.056 33.618 116.75 32.706 116.75C31.806 116.75 31.122 117.056 30.654 117.668C30.198 118.28 29.958 119.126 29.934 120.206L29.916 121.682L29.934 123.194C29.958 124.286 30.198 125.132 30.654 125.732C31.122 126.332 31.806 126.632 32.706 126.632ZM43.7898 128.18C42.8418 128.18 42.0198 128.03 41.3238 127.73C40.6398 127.418 40.1178 127.016 39.7578 126.524C39.4098 126.032 39.2238 125.516 39.1998 124.976C39.1998 124.868 39.2358 124.784 39.3078 124.724C39.3798 124.652 39.4698 124.616 39.5778 124.616H40.4598C40.7118 124.616 40.8798 124.748 40.9638 125.012C41.1198 125.612 41.4558 126.038 41.9718 126.29C42.4878 126.53 43.0938 126.65 43.7898 126.65C44.6418 126.65 45.3198 126.452 45.8238 126.056C46.3278 125.648 46.5798 125.066 46.5798 124.31C46.5798 122.858 45.6978 122.132 43.9338 122.132H42.2238C42.1038 122.132 42.0018 122.096 41.9178 122.024C41.8458 121.94 41.8098 121.838 41.8098 121.718V121.232C41.8098 121.064 41.8758 120.902 42.0078 120.746L45.4998 116.93H40.1898C40.0698 116.93 39.9678 116.894 39.8838 116.822C39.8118 116.738 39.7758 116.636 39.7758 116.516V115.832C39.7758 115.712 39.8118 115.61 39.8838 115.526C39.9678 115.442 40.0698 115.4 40.1898 115.4H47.3718C47.5038 115.4 47.6058 115.442 47.6778 115.526C47.7618 115.598 47.8038 115.7 47.8038 115.832V116.48C47.8038 116.624 47.7378 116.762 47.6058 116.894L44.1318 120.764L44.4198 120.782C45.6438 120.818 46.6098 121.136 47.3178 121.736C48.0258 122.336 48.3798 123.212 48.3798 124.364C48.3798 125.144 48.1818 125.822 47.7858 126.398C47.3898 126.974 46.8438 127.418 46.1478 127.73C45.4518 128.03 44.6658 128.18 43.7898 128.18ZM56.4543 128C56.3343 128 56.2323 127.964 56.1483 127.892C56.0763 127.808 56.0403 127.706 56.0403 127.586V124.994H50.2083C50.0883 124.994 49.9863 124.958 49.9023 124.886C49.8303 124.802 49.7943 124.7 49.7943 124.58V123.86C49.7943 123.68 49.8603 123.5 49.9923 123.32L55.3923 115.706C55.4523 115.61 55.5423 115.538 55.6623 115.49C55.7823 115.43 55.9143 115.4 56.0583 115.4H57.3543C57.4743 115.4 57.5703 115.442 57.6423 115.526C57.7263 115.598 57.7683 115.694 57.7683 115.814V123.428H59.3883C59.5083 123.428 59.6103 123.47 59.6943 123.554C59.7783 123.626 59.8203 123.722 59.8203 123.842V124.58C59.8203 124.7 59.7783 124.802 59.6943 124.886C59.6223 124.958 59.5263 124.994 59.4063 124.994H57.7683V127.586C57.7683 127.706 57.7263 127.808 57.6423 127.892C57.5703 127.964 57.4743 128 57.3543 128H56.4543ZM56.0583 123.464V117.29L51.7203 123.464H56.0583ZM63.7494 128C63.6414 128 63.5514 127.964 63.4794 127.892C63.4194 127.808 63.3894 127.712 63.3894 127.604C63.3894 127.52 63.4134 127.442 63.4614 127.37L66.2154 123.536C65.9274 123.608 65.6034 123.644 65.2434 123.644C64.3914 123.632 63.6354 123.434 62.9754 123.05C62.3274 122.666 61.8294 122.156 61.4814 121.52C61.1334 120.884 60.9594 120.206 60.9594 119.486C60.9594 118.766 61.1274 118.082 61.4634 117.434C61.8114 116.774 62.3274 116.24 63.0114 115.832C63.6954 115.424 64.5234 115.22 65.4954 115.22C66.4674 115.22 67.2954 115.418 67.9794 115.814C68.6754 116.21 69.1974 116.732 69.5454 117.38C69.8934 118.028 70.0674 118.718 70.0674 119.45C70.0674 120.098 69.9534 120.674 69.7254 121.178C69.4974 121.67 69.1794 122.21 68.7714 122.798L65.2974 127.64C65.2134 127.748 65.1294 127.838 65.0454 127.91C64.9734 127.97 64.8654 128 64.7214 128H63.7494ZM65.4954 122.186C65.9994 122.186 66.4614 122.078 66.8814 121.862C67.3134 121.634 67.6554 121.316 67.9074 120.908C68.1594 120.488 68.2854 120.008 68.2854 119.468C68.2854 118.928 68.1594 118.454 67.9074 118.046C67.6554 117.626 67.3134 117.308 66.8814 117.092C66.4614 116.864 65.9994 116.75 65.4954 116.75C64.9914 116.75 64.5294 116.864 64.1094 117.092C63.6894 117.308 63.3534 117.626 63.1014 118.046C62.8614 118.454 62.7414 118.928 62.7414 119.468C62.7414 120.008 62.8614 120.488 63.1014 120.908C63.3534 121.316 63.6894 121.634 64.1094 121.862C64.5294 122.078 64.9914 122.186 65.4954 122.186ZM80.3254 128C80.2054 128 80.1034 127.964 80.0194 127.892C79.9474 127.808 79.9114 127.706 79.9114 127.586V117.506L76.9234 119.81C76.8394 119.882 76.7494 119.918 76.6534 119.918C76.5454 119.918 76.4434 119.858 76.3474 119.738L75.8794 119.144C75.8194 119.06 75.7894 118.976 75.7894 118.892C75.7894 118.748 75.8494 118.634 75.9694 118.55L79.8934 115.526C80.0254 115.442 80.1814 115.4 80.3614 115.4H81.2794C81.3994 115.4 81.4954 115.442 81.5674 115.526C81.6514 115.598 81.6934 115.694 81.6934 115.814V127.586C81.6934 127.706 81.6514 127.808 81.5674 127.892C81.4954 127.964 81.3994 128 81.2794 128H80.3254ZM88.7626 128.18C87.2146 128.18 86.0806 127.73 85.3606 126.83C84.6406 125.93 84.2566 124.748 84.2086 123.284C84.1966 122.96 84.1906 122.438 84.1906 121.718C84.1906 120.974 84.1966 120.434 84.2086 120.098C84.2446 118.658 84.6286 117.488 85.3606 116.588C86.0926 115.676 87.2266 115.22 88.7626 115.22C90.3106 115.22 91.4506 115.676 92.1826 116.588C92.9146 117.488 93.2986 118.658 93.3346 120.098C93.3586 120.77 93.3706 121.31 93.3706 121.718C93.3706 122.114 93.3586 122.636 93.3346 123.284C93.2866 124.748 92.9026 125.93 92.1826 126.83C91.4626 127.73 90.3226 128.18 88.7626 128.18ZM88.7626 126.632C89.6626 126.632 90.3406 126.332 90.7966 125.732C91.2646 125.132 91.5106 124.286 91.5346 123.194C91.5586 122.498 91.5706 121.994 91.5706 121.682C91.5706 121.346 91.5586 120.854 91.5346 120.206C91.5106 119.126 91.2706 118.28 90.8146 117.668C90.3586 117.056 89.6746 116.75 88.7626 116.75C87.8626 116.75 87.1786 117.056 86.7106 117.668C86.2546 118.28 86.0146 119.126 85.9906 120.206L85.9726 121.682L85.9906 123.194C86.0146 124.286 86.2546 125.132 86.7106 125.732C87.1786 126.332 87.8626 126.632 88.7626 126.632ZM95.7784 128C95.6584 128 95.5564 127.964 95.4724 127.892C95.4004 127.808 95.3644 127.706 95.3644 127.586V127.01C95.3644 126.734 95.5144 126.47 95.8144 126.218L99.6304 122.402C100.554 121.634 101.19 121.01 101.538 120.53C101.886 120.038 102.06 119.522 102.06 118.982C102.06 118.286 101.862 117.74 101.466 117.344C101.082 116.948 100.518 116.75 99.7744 116.75C99.0784 116.75 98.5204 116.96 98.1004 117.38C97.6804 117.788 97.4224 118.334 97.3264 119.018C97.3024 119.162 97.2424 119.27 97.1464 119.342C97.0624 119.402 96.9664 119.432 96.8584 119.432H95.9224C95.8144 119.432 95.7244 119.402 95.6524 119.342C95.5804 119.27 95.5444 119.186 95.5444 119.09C95.5684 118.442 95.7424 117.824 96.0664 117.236C96.3904 116.636 96.8644 116.15 97.4884 115.778C98.1244 115.394 98.8864 115.202 99.7744 115.202C101.13 115.202 102.15 115.556 102.834 116.264C103.53 116.96 103.878 117.848 103.878 118.928C103.878 119.684 103.686 120.368 103.302 120.98C102.93 121.58 102.348 122.228 101.556 122.924L98.1004 126.434H103.716C103.848 126.434 103.95 126.476 104.022 126.56C104.106 126.632 104.148 126.728 104.148 126.848V127.586C104.148 127.706 104.106 127.808 104.022 127.892C103.938 127.964 103.836 128 103.716 128H95.7784ZM108.521 128C108.413 128 108.323 127.964 108.251 127.892C108.191 127.808 108.161 127.712 108.161 127.604C108.161 127.52 108.185 127.442 108.233 127.37L110.987 123.536C110.699 123.608 110.375 123.644 110.015 123.644C109.163 123.632 108.407 123.434 107.747 123.05C107.099 122.666 106.601 122.156 106.253 121.52C105.905 120.884 105.731 120.206 105.731 119.486C105.731 118.766 105.899 118.082 106.235 117.434C106.583 116.774 107.099 116.24 107.783 115.832C108.467 115.424 109.295 115.22 110.267 115.22C111.239 115.22 112.067 115.418 112.751 115.814C113.447 116.21 113.969 116.732 114.317 117.38C114.665 118.028 114.839 118.718 114.839 119.45C114.839 120.098 114.725 120.674 114.497 121.178C114.269 121.67 113.951 122.21 113.543 122.798L110.069 127.64C109.985 127.748 109.901 127.838 109.817 127.91C109.745 127.97 109.637 128 109.493 128H108.521ZM110.267 122.186C110.771 122.186 111.233 122.078 111.653 121.862C112.085 121.634 112.427 121.316 112.679 120.908C112.931 120.488 113.057 120.008 113.057 119.468C113.057 118.928 112.931 118.454 112.679 118.046C112.427 117.626 112.085 117.308 111.653 117.092C111.233 116.864 110.771 116.75 110.267 116.75C109.763 116.75 109.301 116.864 108.881 117.092C108.461 117.308 108.125 117.626 107.873 118.046C107.633 118.454 107.513 118.928 107.513 119.468C107.513 120.008 107.633 120.488 107.873 120.908C108.125 121.316 108.461 121.634 108.881 121.862C109.301 122.078 109.763 122.186 110.267 122.186ZM125.493 128.18C124.545 128.18 123.723 128.03 123.027 127.73C122.343 127.418 121.821 127.016 121.461 126.524C121.113 126.032 120.927 125.516 120.903 124.976C120.903 124.868 120.939 124.784 121.011 124.724C121.083 124.652 121.173 124.616 121.281 124.616H122.163C122.415 124.616 122.583 124.748 122.667 125.012C122.823 125.612 123.159 126.038 123.675 126.29C124.191 126.53 124.797 126.65 125.493 126.65C126.345 126.65 127.023 126.452 127.527 126.056C128.031 125.648 128.283 125.066 128.283 124.31C128.283 122.858 127.401 122.132 125.637 122.132H123.927C123.807 122.132 123.705 122.096 123.621 122.024C123.549 121.94 123.513 121.838 123.513 121.718V121.232C123.513 121.064 123.579 120.902 123.711 120.746L127.203 116.93H121.893C121.773 116.93 121.671 116.894 121.587 116.822C121.515 116.738 121.479 116.636 121.479 116.516V115.832C121.479 115.712 121.515 115.61 121.587 115.526C121.671 115.442 121.773 115.4 121.893 115.4H129.075C129.207 115.4 129.309 115.442 129.381 115.526C129.465 115.598 129.507 115.7 129.507 115.832V116.48C129.507 116.624 129.441 116.762 129.309 116.894L125.835 120.764L126.123 120.782C127.347 120.818 128.313 121.136 129.021 121.736C129.729 122.336 130.083 123.212 130.083 124.364C130.083 125.144 129.885 125.822 129.489 126.398C129.093 126.974 128.547 127.418 127.851 127.73C127.155 128.03 126.369 128.18 125.493 128.18ZM134.413 128C134.305 128 134.215 127.964 134.143 127.892C134.083 127.808 134.053 127.712 134.053 127.604C134.053 127.52 134.077 127.442 134.125 127.37L136.879 123.536C136.591 123.608 136.267 123.644 135.907 123.644C135.055 123.632 134.299 123.434 133.639 123.05C132.991 122.666 132.493 122.156 132.145 121.52C131.797 120.884 131.623 120.206 131.623 119.486C131.623 118.766 131.791 118.082 132.127 117.434C132.475 116.774 132.991 116.24 133.675 115.832C134.359 115.424 135.187 115.22 136.159 115.22C137.131 115.22 137.959 115.418 138.643 115.814C139.339 116.21 139.861 116.732 140.209 117.38C140.557 118.028 140.731 118.718 140.731 119.45C140.731 120.098 140.617 120.674 140.389 121.178C140.161 121.67 139.843 122.21 139.435 122.798L135.961 127.64C135.877 127.748 135.793 127.838 135.709 127.91C135.637 127.97 135.529 128 135.385 128H134.413ZM136.159 122.186C136.663 122.186 137.125 122.078 137.545 121.862C137.977 121.634 138.319 121.316 138.571 120.908C138.823 120.488 138.949 120.008 138.949 119.468C138.949 118.928 138.823 118.454 138.571 118.046C138.319 117.626 137.977 117.308 137.545 117.092C137.125 116.864 136.663 116.75 136.159 116.75C135.655 116.75 135.193 116.864 134.773 117.092C134.353 117.308 134.017 117.626 133.765 118.046C133.525 118.454 133.405 118.928 133.405 119.468C133.405 120.008 133.525 120.488 133.765 120.908C134.017 121.316 134.353 121.634 134.773 121.862C135.193 122.078 135.655 122.186 136.159 122.186ZM147.315 128.18C145.767 128.18 144.633 127.73 143.913 126.83C143.193 125.93 142.809 124.748 142.761 123.284C142.749 122.96 142.743 122.438 142.743 121.718C142.743 120.974 142.749 120.434 142.761 120.098C142.797 118.658 143.181 117.488 143.913 116.588C144.645 115.676 145.779 115.22 147.315 115.22C148.863 115.22 150.003 115.676 150.735 116.588C151.467 117.488 151.851 118.658 151.887 120.098C151.911 120.77 151.923 121.31 151.923 121.718C151.923 122.114 151.911 122.636 151.887 123.284C151.839 124.748 151.455 125.93 150.735 126.83C150.015 127.73 148.875 128.18 147.315 128.18ZM147.315 126.632C148.215 126.632 148.893 126.332 149.349 125.732C149.817 125.132 150.063 124.286 150.087 123.194C150.111 122.498 150.123 121.994 150.123 121.682C150.123 121.346 150.111 120.854 150.087 120.206C150.063 119.126 149.823 118.28 149.367 117.668C148.911 117.056 148.227 116.75 147.315 116.75C146.415 116.75 145.731 117.056 145.263 117.668C144.807 118.28 144.567 119.126 144.543 120.206L144.525 121.682L144.543 123.194C144.567 124.286 144.807 125.132 145.263 125.732C145.731 126.332 146.415 126.632 147.315 126.632ZM158.003 128C157.883 128 157.781 127.964 157.697 127.892C157.625 127.808 157.589 127.706 157.589 127.586V117.506L154.601 119.81C154.517 119.882 154.427 119.918 154.331 119.918C154.223 119.918 154.121 119.858 154.025 119.738L153.557 119.144C153.497 119.06 153.467 118.976 153.467 118.892C153.467 118.748 153.527 118.634 153.647 118.55L157.571 115.526C157.703 115.442 157.859 115.4 158.039 115.4H158.957C159.077 115.4 159.173 115.442 159.245 115.526C159.329 115.598 159.371 115.694 159.371 115.814V127.586C159.371 127.706 159.329 127.808 159.245 127.892C159.173 127.964 159.077 128 158.957 128H158.003ZM170.114 128C169.994 128 169.892 127.964 169.808 127.892C169.736 127.808 169.7 127.706 169.7 127.586V117.506L166.712 119.81C166.628 119.882 166.538 119.918 166.442 119.918C166.334 119.918 166.232 119.858 166.136 119.738L165.668 119.144C165.608 119.06 165.578 118.976 165.578 118.892C165.578 118.748 165.638 118.634 165.758 118.55L169.682 115.526C169.814 115.442 169.97 115.4 170.15 115.4H171.068C171.188 115.4 171.284 115.442 171.356 115.526C171.44 115.598 171.482 115.694 171.482 115.814V127.586C171.482 127.706 171.44 127.808 171.356 127.892C171.284 127.964 171.188 128 171.068 128H170.114ZM177.814 128C177.694 128 177.592 127.964 177.508 127.892C177.436 127.808 177.4 127.706 177.4 127.586V117.506L174.412 119.81C174.328 119.882 174.238 119.918 174.142 119.918C174.034 119.918 173.932 119.858 173.836 119.738L173.368 119.144C173.308 119.06 173.278 118.976 173.278 118.892C173.278 118.748 173.338 118.634 173.458 118.55L177.382 115.526C177.514 115.442 177.67 115.4 177.85 115.4H178.768C178.888 115.4 178.984 115.442 179.056 115.526C179.14 115.598 179.182 115.694 179.182 115.814V127.586C179.182 127.706 179.14 127.808 179.056 127.892C178.984 127.964 178.888 128 178.768 128H177.814ZM181.841 128C181.721 128 181.619 127.964 181.535 127.892C181.463 127.808 181.427 127.706 181.427 127.586V127.01C181.427 126.734 181.577 126.47 181.877 126.218L185.693 122.402C186.617 121.634 187.253 121.01 187.601 120.53C187.949 120.038 188.123 119.522 188.123 118.982C188.123 118.286 187.925 117.74 187.529 117.344C187.145 116.948 186.581 116.75 185.837 116.75C185.141 116.75 184.583 116.96 184.163 117.38C183.743 117.788 183.485 118.334 183.389 119.018C183.365 119.162 183.305 119.27 183.209 119.342C183.125 119.402 183.029 119.432 182.921 119.432H181.985C181.877 119.432 181.787 119.402 181.715 119.342C181.643 119.27 181.607 119.186 181.607 119.09C181.631 118.442 181.805 117.824 182.129 117.236C182.453 116.636 182.927 116.15 183.551 115.778C184.187 115.394 184.949 115.202 185.837 115.202C187.193 115.202 188.213 115.556 188.897 116.264C189.593 116.96 189.941 117.848 189.941 118.928C189.941 119.684 189.749 120.368 189.365 120.98C188.993 121.58 188.411 122.228 187.619 122.924L184.163 126.434H189.779C189.911 126.434 190.013 126.476 190.085 126.56C190.169 126.632 190.211 126.728 190.211 126.848V127.586C190.211 127.706 190.169 127.808 190.085 127.892C190.001 127.964 189.899 128 189.779 128H181.841ZM196.473 128.18C195.525 128.18 194.703 128.03 194.007 127.73C193.323 127.418 192.801 127.016 192.441 126.524C192.093 126.032 191.907 125.516 191.883 124.976C191.883 124.868 191.919 124.784 191.991 124.724C192.063 124.652 192.153 124.616 192.261 124.616H193.143C193.395 124.616 193.563 124.748 193.647 125.012C193.803 125.612 194.139 126.038 194.655 126.29C195.171 126.53 195.777 126.65 196.473 126.65C197.325 126.65 198.003 126.452 198.507 126.056C199.011 125.648 199.263 125.066 199.263 124.31C199.263 122.858 198.381 122.132 196.617 122.132H194.907C194.787 122.132 194.685 122.096 194.601 122.024C194.529 121.94 194.493 121.838 194.493 121.718V121.232C194.493 121.064 194.559 120.902 194.691 120.746L198.183 116.93H192.873C192.753 116.93 192.651 116.894 192.567 116.822C192.495 116.738 192.459 116.636 192.459 116.516V115.832C192.459 115.712 192.495 115.61 192.567 115.526C192.651 115.442 192.753 115.4 192.873 115.4H200.055C200.187 115.4 200.289 115.442 200.361 115.526C200.445 115.598 200.487 115.7 200.487 115.832V116.48C200.487 116.624 200.421 116.762 200.289 116.894L196.815 120.764L197.103 120.782C198.327 120.818 199.293 121.136 200.001 121.736C200.709 122.336 201.063 123.212 201.063 124.364C201.063 125.144 200.865 125.822 200.469 126.398C200.073 126.974 199.527 127.418 198.831 127.73C198.135 128.03 197.349 128.18 196.473 128.18Z" fill="#636363"/>
<path d="M46.96 44.16C45.808 43.936 44.752 43.6 43.792 43.152C42.832 42.672 41.952 42.16 41.152 41.616C40.352 41.04 39.632 40.448 38.992 39.84C38.352 39.2 37.792 38.592 37.312 38.016L32.608 32.208C32.064 31.568 31.472 30.8 30.832 29.904C30.224 29.008 29.648 28.128 29.104 27.264C29.2 28.064 29.28 28.912 29.344 29.808C29.44 30.672 29.488 31.472 29.488 32.208V54H26.56V20.736H27.472L40.24 37.008C40.464 37.36 40.8 37.744 41.248 38.16L55.6 20.736H56.512V54H53.584V32.208C53.584 31.408 53.616 30.512 53.68 29.52C53.776 28.496 53.872 27.568 53.968 26.736C53.296 27.664 52.592 28.64 51.856 29.664C51.12 30.656 50.448 31.504 49.84 32.208L43.312 39.936C43.952 40.384 44.624 40.8 45.328 41.184C46.064 41.536 46.848 41.808 47.68 42L46.96 44.16ZM76.4538 20.688C77.8938 20.688 79.2058 20.896 80.3898 21.312C81.5738 21.728 82.5818 22.32 83.4138 23.088C84.2778 23.856 84.9498 24.768 85.4298 25.824C85.9098 26.88 86.1498 28.048 86.1498 29.328C86.1498 31.056 85.7338 32.512 84.9018 33.696C84.1018 34.848 82.9818 35.744 81.5418 36.384C83.3978 37.12 84.8698 38.272 85.9578 39.84C87.0778 41.376 87.6378 43.12 87.6378 45.072C87.6378 46.512 87.3818 47.808 86.8698 48.96C86.3578 50.112 85.6218 51.104 84.6618 51.936C83.7018 52.768 82.5178 53.408 81.1098 53.856C79.7338 54.304 78.1818 54.528 76.4538 54.528C74.9178 54.528 73.5578 54.496 72.3738 54.432C71.1898 54.4 70.1818 54.352 69.3498 54.288C68.3898 54.192 67.5418 54.096 66.8058 54V23.712C65.7818 23.552 64.8058 23.264 63.8778 22.848C62.9818 22.432 62.2138 21.776 61.5738 20.88L63.1578 19.248C63.8298 19.888 64.6298 20.368 65.5578 20.688C66.4858 21.008 67.5898 21.168 68.8698 21.168C69.6058 21.168 70.2298 21.152 70.7418 21.12C71.2538 21.056 71.7658 20.992 72.2778 20.928C72.7898 20.864 73.3498 20.816 73.9578 20.784C74.5978 20.72 75.4298 20.688 76.4538 20.688ZM69.7338 37.968V51.648C70.6618 51.712 71.7018 51.776 72.8538 51.84C74.0058 51.872 75.1578 51.888 76.3098 51.888C78.9978 51.888 81.0778 51.28 82.5498 50.064C84.0538 48.848 84.8058 47.12 84.8058 44.88C84.8058 43.92 84.5978 43.024 84.1818 42.192C83.7978 41.36 83.2538 40.64 82.5498 40.032C81.8458 39.392 80.9978 38.896 80.0058 38.544C79.0138 38.192 77.9258 38 76.7418 37.968H76.5498H69.7338ZM76.3098 23.328C75.2858 23.328 74.4698 23.36 73.8618 23.424C73.2538 23.456 72.7258 23.504 72.2778 23.568C71.8618 23.6 71.4618 23.648 71.0778 23.712C70.6938 23.776 70.2458 23.808 69.7338 23.808V35.328H76.4058C78.4218 35.328 80.0698 34.816 81.3498 33.792C82.6298 32.736 83.2698 31.248 83.2698 29.328C83.2698 27.408 82.6298 25.936 81.3498 24.912C80.1018 23.856 78.4218 23.328 76.3098 23.328Z" fill="#636363"/>
<defs>
<linearGradient id="paint0_linear_224_17" x1="0" y1="85.5" x2="321" y2="85.5" gradientUnits="userSpaceOnUse">
<stop stop-color="#CFD9DF"/>
<stop offset="1" stop-color="#DCE1E3"/>
</linearGradient>
</defs>
</svg>
