<svg width="321" height="171" viewBox="0 0 321 171" fill="none" xmlns="http://www.w3.org/2000/svg">
<rect width="321" height="171" rx="12" fill="url(#paint0_linear_202_205)"/>
<path d="M30.08 101.24C28.336 101.24 26.888 100.808 25.736 99.944C24.584 99.08 23.976 97.816 23.912 96.152C23.912 96.008 23.96 95.888 24.056 95.792C24.152 95.68 24.28 95.624 24.44 95.624H25.736C26.072 95.624 26.28 95.808 26.36 96.176C26.456 97.2 26.848 97.96 27.536 98.456C28.224 98.952 29.088 99.2 30.128 99.2C31.328 99.2 32.248 98.808 32.888 98.024C33.544 97.224 33.872 96.152 33.872 94.808V86.288H25.352C25.192 86.288 25.056 86.24 24.944 86.144C24.848 86.032 24.8 85.896 24.8 85.736V84.752C24.8 84.592 24.848 84.464 24.944 84.368C25.056 84.256 25.192 84.2 25.352 84.2H35.696C35.872 84.2 36.008 84.256 36.104 84.368C36.216 84.464 36.272 84.6 36.272 84.776V94.856C36.272 96.808 35.72 98.36 34.616 99.512C33.528 100.664 32.016 101.24 30.08 101.24ZM45.0989 101.24C43.3389 101.24 41.9709 100.744 40.9949 99.752C40.0349 98.76 39.5229 97.44 39.4589 95.792L39.4349 94.76L39.4589 93.728C39.5229 92.096 40.0429 90.784 41.0189 89.792C41.9949 88.784 43.3549 88.28 45.0989 88.28C46.8429 88.28 48.2029 88.784 49.1789 89.792C50.1549 90.784 50.6749 92.096 50.7389 93.728C50.7549 93.904 50.7629 94.248 50.7629 94.76C50.7629 95.272 50.7549 95.616 50.7389 95.792C50.6749 97.44 50.1549 98.76 49.1789 99.752C48.2189 100.744 46.8589 101.24 45.0989 101.24ZM45.0989 99.392C46.1069 99.392 46.8989 99.072 47.4749 98.432C48.0669 97.792 48.3869 96.872 48.4349 95.672C48.4509 95.512 48.4589 95.208 48.4589 94.76C48.4589 94.312 48.4509 94.008 48.4349 93.848C48.3869 92.648 48.0669 91.728 47.4749 91.088C46.8989 90.448 46.1069 90.128 45.0989 90.128C44.0909 90.128 43.2909 90.448 42.6989 91.088C42.1069 91.728 41.7949 92.648 41.7629 93.848L41.7389 94.76L41.7629 95.672C41.7949 96.872 42.1069 97.792 42.6989 98.432C43.2909 99.072 44.0909 99.392 45.0989 99.392ZM57.2482 101.24C56.4642 101.24 55.7362 101.08 55.0642 100.76C54.3922 100.44 53.8562 100.008 53.4562 99.464C53.0722 98.904 52.8802 98.288 52.8802 97.616C52.8802 96.56 53.3122 95.696 54.1762 95.024C55.0562 94.336 56.2402 93.888 57.7282 93.68L61.3042 93.176V92.48C61.3042 90.848 60.3682 90.032 58.4962 90.032C57.7922 90.032 57.2162 90.184 56.7682 90.488C56.3202 90.776 55.9842 91.12 55.7602 91.52C55.7122 91.664 55.6482 91.768 55.5682 91.832C55.5042 91.896 55.4082 91.928 55.2802 91.928H54.2482C54.1042 91.928 53.9762 91.88 53.8642 91.784C53.7682 91.672 53.7202 91.544 53.7202 91.4C53.7362 91.016 53.9122 90.584 54.2482 90.104C54.6002 89.608 55.1362 89.184 55.8562 88.832C56.5762 88.464 57.4642 88.28 58.5202 88.28C60.3122 88.28 61.6002 88.704 62.3842 89.552C63.1682 90.384 63.5602 91.424 63.5602 92.672V100.448C63.5602 100.608 63.5042 100.744 63.3922 100.856C63.2962 100.952 63.1682 101 63.0082 101H61.9042C61.7442 101 61.6082 100.952 61.4962 100.856C61.4002 100.744 61.3522 100.608 61.3522 100.448V99.416C61.0002 99.928 60.4882 100.36 59.8162 100.712C59.1442 101.064 58.2882 101.24 57.2482 101.24ZM57.7522 99.44C58.7922 99.44 59.6402 99.104 60.2962 98.432C60.9682 97.744 61.3042 96.76 61.3042 95.48V94.808L58.5202 95.216C57.3842 95.376 56.5282 95.648 55.9522 96.032C55.3762 96.4 55.0882 96.872 55.0882 97.448C55.0882 98.088 55.3522 98.584 55.8802 98.936C56.4082 99.272 57.0322 99.44 57.7522 99.44ZM59.6962 86.84C59.4082 86.84 59.1602 86.8 58.9522 86.72C58.7442 86.64 58.5122 86.52 58.2562 86.36C58.1282 86.28 57.9922 86.208 57.8482 86.144C57.7042 86.064 57.5602 86.024 57.4162 86.024C57.2882 86.024 57.1842 86.048 57.1042 86.096C57.0402 86.144 56.9842 86.2 56.9362 86.264C56.8882 86.328 56.8562 86.368 56.8402 86.384C56.7122 86.608 56.5602 86.72 56.3842 86.72H55.6162C55.5042 86.72 55.4082 86.68 55.3282 86.6C55.2482 86.52 55.2082 86.432 55.2082 86.336C55.2082 85.808 55.3922 85.32 55.7602 84.872C56.1282 84.424 56.6082 84.2 57.2002 84.2C57.4882 84.2 57.7282 84.24 57.9202 84.32C58.1282 84.4 58.3762 84.52 58.6642 84.68C58.6962 84.696 58.8002 84.752 58.9762 84.848C59.1522 84.96 59.3362 85.016 59.5282 85.016C59.6722 85.016 59.7762 84.984 59.8402 84.92C59.9202 84.856 60.0002 84.76 60.0802 84.632C60.1442 84.52 60.2082 84.44 60.2722 84.392C60.3362 84.328 60.4242 84.296 60.5362 84.296H61.3042C61.4322 84.296 61.5282 84.336 61.5922 84.416C61.6722 84.496 61.7122 84.592 61.7122 84.704C61.7122 85.216 61.5202 85.704 61.1362 86.168C60.7682 86.616 60.2882 86.84 59.6962 86.84ZM72.1224 101.24C70.3624 101.24 68.9944 100.744 68.0184 99.752C67.0584 98.76 66.5464 97.44 66.4824 95.792L66.4584 94.76L66.4824 93.728C66.5464 92.096 67.0664 90.784 68.0424 89.792C69.0184 88.784 70.3784 88.28 72.1224 88.28C73.8664 88.28 75.2264 88.784 76.2024 89.792C77.1784 90.784 77.6984 92.096 77.7624 93.728C77.7784 93.904 77.7864 94.248 77.7864 94.76C77.7864 95.272 77.7784 95.616 77.7624 95.792C77.6984 97.44 77.1784 98.76 76.2024 99.752C75.2424 100.744 73.8824 101.24 72.1224 101.24ZM72.1224 99.392C73.1304 99.392 73.9224 99.072 74.4984 98.432C75.0904 97.792 75.4104 96.872 75.4584 95.672C75.4744 95.512 75.4824 95.208 75.4824 94.76C75.4824 94.312 75.4744 94.008 75.4584 93.848C75.4104 92.648 75.0904 91.728 74.4984 91.088C73.9224 90.448 73.1304 90.128 72.1224 90.128C71.1144 90.128 70.3144 90.448 69.7224 91.088C69.1304 91.728 68.8184 92.648 68.7864 93.848L68.7624 94.76L68.7864 95.672C68.8184 96.872 69.1304 97.792 69.7224 98.432C70.3144 99.072 71.1144 99.392 72.1224 99.392ZM87.5384 101C87.3784 101 87.2424 100.952 87.1304 100.856C87.0344 100.744 86.9864 100.608 86.9864 100.448V84.776C86.9864 84.6 87.0344 84.464 87.1304 84.368C87.2424 84.256 87.3784 84.2 87.5384 84.2H93.6344C95.4424 84.2 96.8664 84.64 97.9064 85.52C98.9464 86.4 99.4664 87.672 99.4664 89.336C99.4664 91 98.9464 92.272 97.9064 93.152C96.8824 94.016 95.4584 94.448 93.6344 94.448H89.3864V100.448C89.3864 100.608 89.3304 100.744 89.2184 100.856C89.1064 100.952 88.9704 101 88.8104 101H87.5384ZM93.5144 92.432C94.6824 92.432 95.5624 92.168 96.1544 91.64C96.7624 91.112 97.0664 90.344 97.0664 89.336C97.0664 88.328 96.7704 87.56 96.1784 87.032C95.5864 86.488 94.6984 86.216 93.5144 86.216H89.3624V92.432H93.5144ZM106.901 101.24C105.253 101.24 103.933 100.736 102.941 99.728C101.965 98.704 101.429 97.312 101.333 95.552L101.309 94.736L101.333 93.944C101.445 92.216 101.989 90.84 102.965 89.816C103.957 88.792 105.261 88.28 106.877 88.28C108.653 88.28 110.029 88.848 111.005 89.984C111.981 91.104 112.469 92.624 112.469 94.544V94.952C112.469 95.112 112.413 95.248 112.301 95.36C112.205 95.456 112.077 95.504 111.917 95.504H103.613V95.72C103.661 96.76 103.973 97.648 104.549 98.384C105.141 99.104 105.917 99.464 106.877 99.464C107.613 99.464 108.213 99.32 108.677 99.032C109.157 98.728 109.509 98.416 109.733 98.096C109.877 97.904 109.981 97.792 110.045 97.76C110.125 97.712 110.261 97.688 110.453 97.688H111.629C111.773 97.688 111.893 97.728 111.989 97.808C112.085 97.888 112.133 98 112.133 98.144C112.133 98.496 111.909 98.92 111.461 99.416C111.029 99.912 110.413 100.344 109.613 100.712C108.829 101.064 107.925 101.24 106.901 101.24ZM110.189 93.848V93.776C110.189 92.672 109.885 91.776 109.277 91.088C108.685 90.384 107.885 90.032 106.877 90.032C105.869 90.032 105.069 90.384 104.477 91.088C103.901 91.776 103.613 92.672 103.613 93.776V93.848H110.189ZM119.898 101.24C118.235 101.24 116.979 100.696 116.131 99.608C115.283 98.52 114.835 97.144 114.787 95.48L114.763 94.76L114.787 94.04C114.835 92.392 115.283 91.024 116.131 89.936C116.979 88.832 118.235 88.28 119.898 88.28C121.547 88.28 122.843 88.864 123.787 90.032V84.512C123.787 84.352 123.835 84.224 123.931 84.128C124.043 84.016 124.179 83.96 124.339 83.96H125.491C125.651 83.96 125.779 84.016 125.875 84.128C125.987 84.224 126.043 84.352 126.043 84.512V100.448C126.043 100.608 125.987 100.744 125.875 100.856C125.779 100.952 125.651 101 125.491 101H124.411C124.251 101 124.115 100.952 124.003 100.856C123.907 100.744 123.859 100.608 123.859 100.448V99.44C122.931 100.64 121.611 101.24 119.898 101.24ZM120.403 99.296C121.507 99.296 122.331 98.936 122.875 98.216C123.435 97.48 123.739 96.608 123.787 95.6C123.803 95.424 123.811 95.12 123.811 94.688C123.811 94.24 123.803 93.928 123.787 93.752C123.755 92.808 123.451 91.984 122.875 91.28C122.299 90.576 121.475 90.224 120.403 90.224C119.267 90.224 118.435 90.576 117.907 91.28C117.395 91.984 117.115 92.912 117.067 94.064L117.043 94.76C117.043 97.784 118.163 99.296 120.403 99.296ZM130.164 101C130.004 101 129.868 100.952 129.756 100.856C129.66 100.744 129.612 100.608 129.612 100.448V89.096C129.612 88.936 129.66 88.8 129.756 88.688C129.868 88.576 130.004 88.52 130.164 88.52H131.268C131.428 88.52 131.564 88.576 131.676 88.688C131.788 88.8 131.844 88.936 131.844 89.096V90.152C132.5 89.064 133.62 88.52 135.204 88.52H136.14C136.3 88.52 136.428 88.576 136.524 88.688C136.636 88.784 136.692 88.912 136.692 89.072V90.056C136.692 90.216 136.636 90.344 136.524 90.44C136.428 90.536 136.3 90.584 136.14 90.584H134.7C133.836 90.584 133.156 90.84 132.66 91.352C132.164 91.848 131.916 92.528 131.916 93.392V100.448C131.916 100.608 131.86 100.744 131.748 100.856C131.636 100.952 131.5 101 131.34 101H130.164ZM143.607 101.24C141.847 101.24 140.479 100.744 139.503 99.752C138.543 98.76 138.031 97.44 137.967 95.792L137.943 94.76L137.967 93.728C138.031 92.096 138.551 90.784 139.527 89.792C140.503 88.784 141.863 88.28 143.607 88.28C145.351 88.28 146.711 88.784 147.687 89.792C148.663 90.784 149.183 92.096 149.247 93.728C149.263 93.904 149.271 94.248 149.271 94.76C149.271 95.272 149.263 95.616 149.247 95.792C149.183 97.44 148.663 98.76 147.687 99.752C146.727 100.744 145.367 101.24 143.607 101.24ZM143.607 99.392C144.615 99.392 145.407 99.072 145.983 98.432C146.575 97.792 146.895 96.872 146.943 95.672C146.959 95.512 146.967 95.208 146.967 94.76C146.967 94.312 146.959 94.008 146.943 93.848C146.895 92.648 146.575 91.728 145.983 91.088C145.407 90.448 144.615 90.128 143.607 90.128C142.599 90.128 141.799 90.448 141.207 91.088C140.615 91.728 140.303 92.648 140.271 93.848L140.247 94.76L140.271 95.672C140.303 96.872 140.615 97.792 141.207 98.432C141.799 99.072 142.599 99.392 143.607 99.392Z" fill="white"/>
<path d="M28.706 128.18C27.158 128.18 26.024 127.73 25.304 126.83C24.584 125.93 24.2 124.748 24.152 123.284C24.14 122.96 24.134 122.438 24.134 121.718C24.134 120.974 24.14 120.434 24.152 120.098C24.188 118.658 24.572 117.488 25.304 116.588C26.036 115.676 27.17 115.22 28.706 115.22C30.254 115.22 31.394 115.676 32.126 116.588C32.858 117.488 33.242 118.658 33.278 120.098C33.302 120.77 33.314 121.31 33.314 121.718C33.314 122.114 33.302 122.636 33.278 123.284C33.23 124.748 32.846 125.93 32.126 126.83C31.406 127.73 30.266 128.18 28.706 128.18ZM28.706 126.632C29.606 126.632 30.284 126.332 30.74 125.732C31.208 125.132 31.454 124.286 31.478 123.194C31.502 122.498 31.514 121.994 31.514 121.682C31.514 121.346 31.502 120.854 31.478 120.206C31.454 119.126 31.214 118.28 30.758 117.668C30.302 117.056 29.618 116.75 28.706 116.75C27.806 116.75 27.122 117.056 26.654 117.668C26.198 118.28 25.958 119.126 25.934 120.206L25.916 121.682L25.934 123.194C25.958 124.286 26.198 125.132 26.654 125.732C27.122 126.332 27.806 126.632 28.706 126.632ZM39.7898 128.18C38.8418 128.18 38.0198 128.03 37.3238 127.73C36.6398 127.418 36.1178 127.016 35.7578 126.524C35.4098 126.032 35.2238 125.516 35.1998 124.976C35.1998 124.868 35.2358 124.784 35.3078 124.724C35.3798 124.652 35.4698 124.616 35.5778 124.616H36.4598C36.7118 124.616 36.8798 124.748 36.9638 125.012C37.1198 125.612 37.4558 126.038 37.9718 126.29C38.4878 126.53 39.0938 126.65 39.7898 126.65C40.6418 126.65 41.3198 126.452 41.8238 126.056C42.3278 125.648 42.5798 125.066 42.5798 124.31C42.5798 122.858 41.6978 122.132 39.9338 122.132H38.2238C38.1038 122.132 38.0018 122.096 37.9178 122.024C37.8458 121.94 37.8098 121.838 37.8098 121.718V121.232C37.8098 121.064 37.8758 120.902 38.0078 120.746L41.4998 116.93H36.1898C36.0698 116.93 35.9678 116.894 35.8838 116.822C35.8118 116.738 35.7758 116.636 35.7758 116.516V115.832C35.7758 115.712 35.8118 115.61 35.8838 115.526C35.9678 115.442 36.0698 115.4 36.1898 115.4H43.3718C43.5038 115.4 43.6058 115.442 43.6778 115.526C43.7618 115.598 43.8038 115.7 43.8038 115.832V116.48C43.8038 116.624 43.7378 116.762 43.6058 116.894L40.1318 120.764L40.4198 120.782C41.6438 120.818 42.6098 121.136 43.3178 121.736C44.0258 122.336 44.3798 123.212 44.3798 124.364C44.3798 125.144 44.1818 125.822 43.7858 126.398C43.3898 126.974 42.8438 127.418 42.1478 127.73C41.4518 128.03 40.6658 128.18 39.7898 128.18ZM52.4543 128C52.3343 128 52.2323 127.964 52.1483 127.892C52.0763 127.808 52.0403 127.706 52.0403 127.586V124.994H46.2083C46.0883 124.994 45.9863 124.958 45.9023 124.886C45.8303 124.802 45.7943 124.7 45.7943 124.58V123.86C45.7943 123.68 45.8603 123.5 45.9923 123.32L51.3923 115.706C51.4523 115.61 51.5423 115.538 51.6623 115.49C51.7823 115.43 51.9143 115.4 52.0583 115.4H53.3543C53.4743 115.4 53.5703 115.442 53.6423 115.526C53.7263 115.598 53.7683 115.694 53.7683 115.814V123.428H55.3883C55.5083 123.428 55.6103 123.47 55.6943 123.554C55.7783 123.626 55.8203 123.722 55.8203 123.842V124.58C55.8203 124.7 55.7783 124.802 55.6943 124.886C55.6223 124.958 55.5263 124.994 55.4063 124.994H53.7683V127.586C53.7683 127.706 53.7263 127.808 53.6423 127.892C53.5703 127.964 53.4743 128 53.3543 128H52.4543ZM52.0583 123.464V117.29L47.7203 123.464H52.0583ZM59.7494 128C59.6414 128 59.5514 127.964 59.4794 127.892C59.4194 127.808 59.3894 127.712 59.3894 127.604C59.3894 127.52 59.4134 127.442 59.4614 127.37L62.2154 123.536C61.9274 123.608 61.6034 123.644 61.2434 123.644C60.3914 123.632 59.6354 123.434 58.9754 123.05C58.3274 122.666 57.8294 122.156 57.4814 121.52C57.1334 120.884 56.9594 120.206 56.9594 119.486C56.9594 118.766 57.1274 118.082 57.4634 117.434C57.8114 116.774 58.3274 116.24 59.0114 115.832C59.6954 115.424 60.5234 115.22 61.4954 115.22C62.4674 115.22 63.2954 115.418 63.9794 115.814C64.6754 116.21 65.1974 116.732 65.5454 117.38C65.8934 118.028 66.0674 118.718 66.0674 119.45C66.0674 120.098 65.9534 120.674 65.7254 121.178C65.4974 121.67 65.1794 122.21 64.7714 122.798L61.2974 127.64C61.2134 127.748 61.1294 127.838 61.0454 127.91C60.9734 127.97 60.8654 128 60.7214 128H59.7494ZM61.4954 122.186C61.9994 122.186 62.4614 122.078 62.8814 121.862C63.3134 121.634 63.6554 121.316 63.9074 120.908C64.1594 120.488 64.2854 120.008 64.2854 119.468C64.2854 118.928 64.1594 118.454 63.9074 118.046C63.6554 117.626 63.3134 117.308 62.8814 117.092C62.4614 116.864 61.9994 116.75 61.4954 116.75C60.9914 116.75 60.5294 116.864 60.1094 117.092C59.6894 117.308 59.3534 117.626 59.1014 118.046C58.8614 118.454 58.7414 118.928 58.7414 119.468C58.7414 120.008 58.8614 120.488 59.1014 120.908C59.3534 121.316 59.6894 121.634 60.1094 121.862C60.5294 122.078 60.9914 122.186 61.4954 122.186ZM76.3254 128C76.2054 128 76.1034 127.964 76.0194 127.892C75.9474 127.808 75.9114 127.706 75.9114 127.586V117.506L72.9234 119.81C72.8394 119.882 72.7494 119.918 72.6534 119.918C72.5454 119.918 72.4434 119.858 72.3474 119.738L71.8794 119.144C71.8194 119.06 71.7894 118.976 71.7894 118.892C71.7894 118.748 71.8494 118.634 71.9694 118.55L75.8934 115.526C76.0254 115.442 76.1814 115.4 76.3614 115.4H77.2794C77.3994 115.4 77.4954 115.442 77.5674 115.526C77.6514 115.598 77.6934 115.694 77.6934 115.814V127.586C77.6934 127.706 77.6514 127.808 77.5674 127.892C77.4954 127.964 77.3994 128 77.2794 128H76.3254ZM84.7626 128.18C83.2146 128.18 82.0806 127.73 81.3606 126.83C80.6406 125.93 80.2566 124.748 80.2086 123.284C80.1966 122.96 80.1906 122.438 80.1906 121.718C80.1906 120.974 80.1966 120.434 80.2086 120.098C80.2446 118.658 80.6286 117.488 81.3606 116.588C82.0926 115.676 83.2266 115.22 84.7626 115.22C86.3106 115.22 87.4506 115.676 88.1826 116.588C88.9146 117.488 89.2986 118.658 89.3346 120.098C89.3586 120.77 89.3706 121.31 89.3706 121.718C89.3706 122.114 89.3586 122.636 89.3346 123.284C89.2866 124.748 88.9026 125.93 88.1826 126.83C87.4626 127.73 86.3226 128.18 84.7626 128.18ZM84.7626 126.632C85.6626 126.632 86.3406 126.332 86.7966 125.732C87.2646 125.132 87.5106 124.286 87.5346 123.194C87.5586 122.498 87.5706 121.994 87.5706 121.682C87.5706 121.346 87.5586 120.854 87.5346 120.206C87.5106 119.126 87.2706 118.28 86.8146 117.668C86.3586 117.056 85.6746 116.75 84.7626 116.75C83.8626 116.75 83.1786 117.056 82.7106 117.668C82.2546 118.28 82.0146 119.126 81.9906 120.206L81.9726 121.682L81.9906 123.194C82.0146 124.286 82.2546 125.132 82.7106 125.732C83.1786 126.332 83.8626 126.632 84.7626 126.632ZM91.7784 128C91.6584 128 91.5564 127.964 91.4724 127.892C91.4004 127.808 91.3644 127.706 91.3644 127.586V127.01C91.3644 126.734 91.5144 126.47 91.8144 126.218L95.6304 122.402C96.5544 121.634 97.1904 121.01 97.5384 120.53C97.8864 120.038 98.0604 119.522 98.0604 118.982C98.0604 118.286 97.8624 117.74 97.4664 117.344C97.0824 116.948 96.5184 116.75 95.7744 116.75C95.0784 116.75 94.5204 116.96 94.1004 117.38C93.6804 117.788 93.4224 118.334 93.3264 119.018C93.3024 119.162 93.2424 119.27 93.1464 119.342C93.0624 119.402 92.9664 119.432 92.8584 119.432H91.9224C91.8144 119.432 91.7244 119.402 91.6524 119.342C91.5804 119.27 91.5444 119.186 91.5444 119.09C91.5684 118.442 91.7424 117.824 92.0664 117.236C92.3904 116.636 92.8644 116.15 93.4884 115.778C94.1244 115.394 94.8864 115.202 95.7744 115.202C97.1304 115.202 98.1504 115.556 98.8344 116.264C99.5304 116.96 99.8784 117.848 99.8784 118.928C99.8784 119.684 99.6864 120.368 99.3024 120.98C98.9304 121.58 98.3484 122.228 97.5564 122.924L94.1004 126.434H99.7164C99.8484 126.434 99.9504 126.476 100.022 126.56C100.106 126.632 100.148 126.728 100.148 126.848V127.586C100.148 127.706 100.106 127.808 100.022 127.892C99.9384 127.964 99.8364 128 99.7164 128H91.7784ZM104.521 128C104.413 128 104.323 127.964 104.251 127.892C104.191 127.808 104.161 127.712 104.161 127.604C104.161 127.52 104.185 127.442 104.233 127.37L106.987 123.536C106.699 123.608 106.375 123.644 106.015 123.644C105.163 123.632 104.407 123.434 103.747 123.05C103.099 122.666 102.601 122.156 102.253 121.52C101.905 120.884 101.731 120.206 101.731 119.486C101.731 118.766 101.899 118.082 102.235 117.434C102.583 116.774 103.099 116.24 103.783 115.832C104.467 115.424 105.295 115.22 106.267 115.22C107.239 115.22 108.067 115.418 108.751 115.814C109.447 116.21 109.969 116.732 110.317 117.38C110.665 118.028 110.839 118.718 110.839 119.45C110.839 120.098 110.725 120.674 110.497 121.178C110.269 121.67 109.951 122.21 109.543 122.798L106.069 127.64C105.985 127.748 105.901 127.838 105.817 127.91C105.745 127.97 105.637 128 105.493 128H104.521ZM106.267 122.186C106.771 122.186 107.233 122.078 107.653 121.862C108.085 121.634 108.427 121.316 108.679 120.908C108.931 120.488 109.057 120.008 109.057 119.468C109.057 118.928 108.931 118.454 108.679 118.046C108.427 117.626 108.085 117.308 107.653 117.092C107.233 116.864 106.771 116.75 106.267 116.75C105.763 116.75 105.301 116.864 104.881 117.092C104.461 117.308 104.125 117.626 103.873 118.046C103.633 118.454 103.513 118.928 103.513 119.468C103.513 120.008 103.633 120.488 103.873 120.908C104.125 121.316 104.461 121.634 104.881 121.862C105.301 122.078 105.763 122.186 106.267 122.186ZM121.493 128.18C120.545 128.18 119.723 128.03 119.027 127.73C118.343 127.418 117.821 127.016 117.461 126.524C117.113 126.032 116.927 125.516 116.903 124.976C116.903 124.868 116.939 124.784 117.011 124.724C117.083 124.652 117.173 124.616 117.281 124.616H118.163C118.415 124.616 118.583 124.748 118.667 125.012C118.823 125.612 119.159 126.038 119.675 126.29C120.191 126.53 120.797 126.65 121.493 126.65C122.345 126.65 123.023 126.452 123.527 126.056C124.031 125.648 124.283 125.066 124.283 124.31C124.283 122.858 123.401 122.132 121.637 122.132H119.927C119.807 122.132 119.705 122.096 119.621 122.024C119.549 121.94 119.513 121.838 119.513 121.718V121.232C119.513 121.064 119.579 120.902 119.711 120.746L123.203 116.93H117.893C117.773 116.93 117.671 116.894 117.587 116.822C117.515 116.738 117.479 116.636 117.479 116.516V115.832C117.479 115.712 117.515 115.61 117.587 115.526C117.671 115.442 117.773 115.4 117.893 115.4H125.075C125.207 115.4 125.309 115.442 125.381 115.526C125.465 115.598 125.507 115.7 125.507 115.832V116.48C125.507 116.624 125.441 116.762 125.309 116.894L121.835 120.764L122.123 120.782C123.347 120.818 124.313 121.136 125.021 121.736C125.729 122.336 126.083 123.212 126.083 124.364C126.083 125.144 125.885 125.822 125.489 126.398C125.093 126.974 124.547 127.418 123.851 127.73C123.155 128.03 122.369 128.18 121.493 128.18ZM130.413 128C130.305 128 130.215 127.964 130.143 127.892C130.083 127.808 130.053 127.712 130.053 127.604C130.053 127.52 130.077 127.442 130.125 127.37L132.879 123.536C132.591 123.608 132.267 123.644 131.907 123.644C131.055 123.632 130.299 123.434 129.639 123.05C128.991 122.666 128.493 122.156 128.145 121.52C127.797 120.884 127.623 120.206 127.623 119.486C127.623 118.766 127.791 118.082 128.127 117.434C128.475 116.774 128.991 116.24 129.675 115.832C130.359 115.424 131.187 115.22 132.159 115.22C133.131 115.22 133.959 115.418 134.643 115.814C135.339 116.21 135.861 116.732 136.209 117.38C136.557 118.028 136.731 118.718 136.731 119.45C136.731 120.098 136.617 120.674 136.389 121.178C136.161 121.67 135.843 122.21 135.435 122.798L131.961 127.64C131.877 127.748 131.793 127.838 131.709 127.91C131.637 127.97 131.529 128 131.385 128H130.413ZM132.159 122.186C132.663 122.186 133.125 122.078 133.545 121.862C133.977 121.634 134.319 121.316 134.571 120.908C134.823 120.488 134.949 120.008 134.949 119.468C134.949 118.928 134.823 118.454 134.571 118.046C134.319 117.626 133.977 117.308 133.545 117.092C133.125 116.864 132.663 116.75 132.159 116.75C131.655 116.75 131.193 116.864 130.773 117.092C130.353 117.308 130.017 117.626 129.765 118.046C129.525 118.454 129.405 118.928 129.405 119.468C129.405 120.008 129.525 120.488 129.765 120.908C130.017 121.316 130.353 121.634 130.773 121.862C131.193 122.078 131.655 122.186 132.159 122.186ZM143.315 128.18C141.767 128.18 140.633 127.73 139.913 126.83C139.193 125.93 138.809 124.748 138.761 123.284C138.749 122.96 138.743 122.438 138.743 121.718C138.743 120.974 138.749 120.434 138.761 120.098C138.797 118.658 139.181 117.488 139.913 116.588C140.645 115.676 141.779 115.22 143.315 115.22C144.863 115.22 146.003 115.676 146.735 116.588C147.467 117.488 147.851 118.658 147.887 120.098C147.911 120.77 147.923 121.31 147.923 121.718C147.923 122.114 147.911 122.636 147.887 123.284C147.839 124.748 147.455 125.93 146.735 126.83C146.015 127.73 144.875 128.18 143.315 128.18ZM143.315 126.632C144.215 126.632 144.893 126.332 145.349 125.732C145.817 125.132 146.063 124.286 146.087 123.194C146.111 122.498 146.123 121.994 146.123 121.682C146.123 121.346 146.111 120.854 146.087 120.206C146.063 119.126 145.823 118.28 145.367 117.668C144.911 117.056 144.227 116.75 143.315 116.75C142.415 116.75 141.731 117.056 141.263 117.668C140.807 118.28 140.567 119.126 140.543 120.206L140.525 121.682L140.543 123.194C140.567 124.286 140.807 125.132 141.263 125.732C141.731 126.332 142.415 126.632 143.315 126.632ZM154.003 128C153.883 128 153.781 127.964 153.697 127.892C153.625 127.808 153.589 127.706 153.589 127.586V117.506L150.601 119.81C150.517 119.882 150.427 119.918 150.331 119.918C150.223 119.918 150.121 119.858 150.025 119.738L149.557 119.144C149.497 119.06 149.467 118.976 149.467 118.892C149.467 118.748 149.527 118.634 149.647 118.55L153.571 115.526C153.703 115.442 153.859 115.4 154.039 115.4H154.957C155.077 115.4 155.173 115.442 155.245 115.526C155.329 115.598 155.371 115.694 155.371 115.814V127.586C155.371 127.706 155.329 127.808 155.245 127.892C155.173 127.964 155.077 128 154.957 128H154.003ZM166.114 128C165.994 128 165.892 127.964 165.808 127.892C165.736 127.808 165.7 127.706 165.7 127.586V117.506L162.712 119.81C162.628 119.882 162.538 119.918 162.442 119.918C162.334 119.918 162.232 119.858 162.136 119.738L161.668 119.144C161.608 119.06 161.578 118.976 161.578 118.892C161.578 118.748 161.638 118.634 161.758 118.55L165.682 115.526C165.814 115.442 165.97 115.4 166.15 115.4H167.068C167.188 115.4 167.284 115.442 167.356 115.526C167.44 115.598 167.482 115.694 167.482 115.814V127.586C167.482 127.706 167.44 127.808 167.356 127.892C167.284 127.964 167.188 128 167.068 128H166.114ZM173.814 128C173.694 128 173.592 127.964 173.508 127.892C173.436 127.808 173.4 127.706 173.4 127.586V117.506L170.412 119.81C170.328 119.882 170.238 119.918 170.142 119.918C170.034 119.918 169.932 119.858 169.836 119.738L169.368 119.144C169.308 119.06 169.278 118.976 169.278 118.892C169.278 118.748 169.338 118.634 169.458 118.55L173.382 115.526C173.514 115.442 173.67 115.4 173.85 115.4H174.768C174.888 115.4 174.984 115.442 175.056 115.526C175.14 115.598 175.182 115.694 175.182 115.814V127.586C175.182 127.706 175.14 127.808 175.056 127.892C174.984 127.964 174.888 128 174.768 128H173.814ZM177.841 128C177.721 128 177.619 127.964 177.535 127.892C177.463 127.808 177.427 127.706 177.427 127.586V127.01C177.427 126.734 177.577 126.47 177.877 126.218L181.693 122.402C182.617 121.634 183.253 121.01 183.601 120.53C183.949 120.038 184.123 119.522 184.123 118.982C184.123 118.286 183.925 117.74 183.529 117.344C183.145 116.948 182.581 116.75 181.837 116.75C181.141 116.75 180.583 116.96 180.163 117.38C179.743 117.788 179.485 118.334 179.389 119.018C179.365 119.162 179.305 119.27 179.209 119.342C179.125 119.402 179.029 119.432 178.921 119.432H177.985C177.877 119.432 177.787 119.402 177.715 119.342C177.643 119.27 177.607 119.186 177.607 119.09C177.631 118.442 177.805 117.824 178.129 117.236C178.453 116.636 178.927 116.15 179.551 115.778C180.187 115.394 180.949 115.202 181.837 115.202C183.193 115.202 184.213 115.556 184.897 116.264C185.593 116.96 185.941 117.848 185.941 118.928C185.941 119.684 185.749 120.368 185.365 120.98C184.993 121.58 184.411 122.228 183.619 122.924L180.163 126.434H185.779C185.911 126.434 186.013 126.476 186.085 126.56C186.169 126.632 186.211 126.728 186.211 126.848V127.586C186.211 127.706 186.169 127.808 186.085 127.892C186.001 127.964 185.899 128 185.779 128H177.841ZM192.473 128.18C191.525 128.18 190.703 128.03 190.007 127.73C189.323 127.418 188.801 127.016 188.441 126.524C188.093 126.032 187.907 125.516 187.883 124.976C187.883 124.868 187.919 124.784 187.991 124.724C188.063 124.652 188.153 124.616 188.261 124.616H189.143C189.395 124.616 189.563 124.748 189.647 125.012C189.803 125.612 190.139 126.038 190.655 126.29C191.171 126.53 191.777 126.65 192.473 126.65C193.325 126.65 194.003 126.452 194.507 126.056C195.011 125.648 195.263 125.066 195.263 124.31C195.263 122.858 194.381 122.132 192.617 122.132H190.907C190.787 122.132 190.685 122.096 190.601 122.024C190.529 121.94 190.493 121.838 190.493 121.718V121.232C190.493 121.064 190.559 120.902 190.691 120.746L194.183 116.93H188.873C188.753 116.93 188.651 116.894 188.567 116.822C188.495 116.738 188.459 116.636 188.459 116.516V115.832C188.459 115.712 188.495 115.61 188.567 115.526C188.651 115.442 188.753 115.4 188.873 115.4H196.055C196.187 115.4 196.289 115.442 196.361 115.526C196.445 115.598 196.487 115.7 196.487 115.832V116.48C196.487 116.624 196.421 116.762 196.289 116.894L192.815 120.764L193.103 120.782C194.327 120.818 195.293 121.136 196.001 121.736C196.709 122.336 197.063 123.212 197.063 124.364C197.063 125.144 196.865 125.822 196.469 126.398C196.073 126.974 195.527 127.418 194.831 127.73C194.135 128.03 193.349 128.18 192.473 128.18Z" fill="white"/>
<path d="M42.96 44.16C41.808 43.936 40.752 43.6 39.792 43.152C38.832 42.672 37.952 42.16 37.152 41.616C36.352 41.04 35.632 40.448 34.992 39.84C34.352 39.2 33.792 38.592 33.312 38.016L28.608 32.208C28.064 31.568 27.472 30.8 26.832 29.904C26.224 29.008 25.648 28.128 25.104 27.264C25.2 28.064 25.28 28.912 25.344 29.808C25.44 30.672 25.488 31.472 25.488 32.208V54H22.56V20.736H23.472L36.24 37.008C36.464 37.36 36.8 37.744 37.248 38.16L51.6 20.736H52.512V54H49.584V32.208C49.584 31.408 49.616 30.512 49.68 29.52C49.776 28.496 49.872 27.568 49.968 26.736C49.296 27.664 48.592 28.64 47.856 29.664C47.12 30.656 46.448 31.504 45.84 32.208L39.312 39.936C39.952 40.384 40.624 40.8 41.328 41.184C42.064 41.536 42.848 41.808 43.68 42L42.96 44.16ZM72.4538 20.688C73.8938 20.688 75.2058 20.896 76.3898 21.312C77.5738 21.728 78.5818 22.32 79.4138 23.088C80.2778 23.856 80.9498 24.768 81.4298 25.824C81.9098 26.88 82.1498 28.048 82.1498 29.328C82.1498 31.056 81.7338 32.512 80.9018 33.696C80.1018 34.848 78.9818 35.744 77.5418 36.384C79.3978 37.12 80.8698 38.272 81.9578 39.84C83.0778 41.376 83.6378 43.12 83.6378 45.072C83.6378 46.512 83.3818 47.808 82.8698 48.96C82.3578 50.112 81.6218 51.104 80.6618 51.936C79.7018 52.768 78.5178 53.408 77.1098 53.856C75.7338 54.304 74.1818 54.528 72.4538 54.528C70.9178 54.528 69.5578 54.496 68.3738 54.432C67.1898 54.4 66.1818 54.352 65.3498 54.288C64.3898 54.192 63.5418 54.096 62.8058 54V23.712C61.7818 23.552 60.8058 23.264 59.8778 22.848C58.9818 22.432 58.2138 21.776 57.5738 20.88L59.1578 19.248C59.8298 19.888 60.6298 20.368 61.5578 20.688C62.4858 21.008 63.5898 21.168 64.8698 21.168C65.6058 21.168 66.2298 21.152 66.7418 21.12C67.2538 21.056 67.7658 20.992 68.2778 20.928C68.7898 20.864 69.3498 20.816 69.9578 20.784C70.5978 20.72 71.4298 20.688 72.4538 20.688ZM65.7338 37.968V51.648C66.6618 51.712 67.7018 51.776 68.8538 51.84C70.0058 51.872 71.1578 51.888 72.3098 51.888C74.9978 51.888 77.0778 51.28 78.5498 50.064C80.0538 48.848 80.8058 47.12 80.8058 44.88C80.8058 43.92 80.5978 43.024 80.1818 42.192C79.7978 41.36 79.2538 40.64 78.5498 40.032C77.8458 39.392 76.9978 38.896 76.0058 38.544C75.0138 38.192 73.9258 38 72.7418 37.968H72.5498H65.7338ZM72.3098 23.328C71.2858 23.328 70.4698 23.36 69.8618 23.424C69.2538 23.456 68.7258 23.504 68.2778 23.568C67.8618 23.6 67.4618 23.648 67.0778 23.712C66.6938 23.776 66.2458 23.808 65.7338 23.808V35.328H72.4058C74.4218 35.328 76.0698 34.816 77.3498 33.792C78.6298 32.736 79.2698 31.248 79.2698 29.328C79.2698 27.408 78.6298 25.936 77.3498 24.912C76.1018 23.856 74.4218 23.328 72.3098 23.328Z" fill="white"/>
<path d="M27.968 156C27.848 156 27.746 155.964 27.662 155.892C27.59 155.808 27.554 155.706 27.554 155.586V145.506L24.566 147.81C24.482 147.882 24.392 147.918 24.296 147.918C24.188 147.918 24.086 147.858 23.99 147.738L23.522 147.144C23.462 147.06 23.432 146.976 23.432 146.892C23.432 146.748 23.492 146.634 23.612 146.55L27.536 143.526C27.668 143.442 27.824 143.4 28.004 143.4H28.922C29.042 143.4 29.138 143.442 29.21 143.526C29.294 143.598 29.336 143.694 29.336 143.814V155.586C29.336 155.706 29.294 155.808 29.21 155.892C29.138 155.964 29.042 156 28.922 156H27.968ZM36.4052 156.18C34.8572 156.18 33.7232 155.73 33.0032 154.83C32.2832 153.93 31.8992 152.748 31.8512 151.284C31.8392 150.96 31.8332 150.438 31.8332 149.718C31.8332 148.974 31.8392 148.434 31.8512 148.098C31.8872 146.658 32.2712 145.488 33.0032 144.588C33.7352 143.676 34.8692 143.22 36.4052 143.22C37.9532 143.22 39.0932 143.676 39.8252 144.588C40.5572 145.488 40.9412 146.658 40.9772 148.098C41.0012 148.77 41.0132 149.31 41.0132 149.718C41.0132 150.114 41.0012 150.636 40.9772 151.284C40.9292 152.748 40.5452 153.93 39.8252 154.83C39.1052 155.73 37.9652 156.18 36.4052 156.18ZM36.4052 154.632C37.3052 154.632 37.9832 154.332 38.4392 153.732C38.9072 153.132 39.1532 152.286 39.1772 151.194C39.2012 150.498 39.2132 149.994 39.2132 149.682C39.2132 149.346 39.2012 148.854 39.1772 148.206C39.1532 147.126 38.9132 146.28 38.4572 145.668C38.0012 145.056 37.3172 144.75 36.4052 144.75C35.5052 144.75 34.8212 145.056 34.3532 145.668C33.8972 146.28 33.6572 147.126 33.6332 148.206L33.6152 149.682L33.6332 151.194C33.6572 152.286 33.8972 153.132 34.3532 153.732C34.8212 154.332 35.5052 154.632 36.4052 154.632ZM42.6014 157.512C42.5054 157.512 42.4214 157.476 42.3494 157.404C42.2774 157.332 42.2414 157.248 42.2414 157.152C42.2414 157.104 42.2594 157.032 42.2954 156.936L48.4514 142.176C48.5474 141.96 48.7034 141.852 48.9194 141.852H49.6214C49.7174 141.852 49.8014 141.888 49.8734 141.96C49.9454 142.032 49.9814 142.116 49.9814 142.212C49.9814 142.296 49.9694 142.368 49.9454 142.428L43.7714 157.188C43.6754 157.404 43.5194 157.512 43.3034 157.512H42.6014ZM51.5069 156C51.3869 156 51.2849 155.964 51.2009 155.892C51.1289 155.808 51.0929 155.706 51.0929 155.586V155.01C51.0929 154.734 51.2429 154.47 51.5429 154.218L55.3589 150.402C56.2829 149.634 56.9189 149.01 57.2669 148.53C57.6149 148.038 57.7889 147.522 57.7889 146.982C57.7889 146.286 57.5909 145.74 57.1949 145.344C56.8109 144.948 56.2469 144.75 55.5029 144.75C54.8069 144.75 54.2489 144.96 53.8289 145.38C53.4089 145.788 53.1509 146.334 53.0549 147.018C53.0309 147.162 52.9709 147.27 52.8749 147.342C52.7909 147.402 52.6949 147.432 52.5869 147.432H51.6509C51.5429 147.432 51.4529 147.402 51.3809 147.342C51.3089 147.27 51.2729 147.186 51.2729 147.09C51.2969 146.442 51.4709 145.824 51.7949 145.236C52.1189 144.636 52.5929 144.15 53.2169 143.778C53.8529 143.394 54.6149 143.202 55.5029 143.202C56.8589 143.202 57.8789 143.556 58.5629 144.264C59.2589 144.96 59.6069 145.848 59.6069 146.928C59.6069 147.684 59.4149 148.368 59.0309 148.98C58.6589 149.58 58.0769 150.228 57.2849 150.924L53.8289 154.434H59.4449C59.5769 154.434 59.6789 154.476 59.7509 154.56C59.8349 154.632 59.8769 154.728 59.8769 154.848V155.586C59.8769 155.706 59.8349 155.808 59.7509 155.892C59.6669 155.964 59.5649 156 59.4449 156H51.5069ZM66.4994 156.18C65.5634 156.18 64.7414 156.03 64.0334 155.73C63.3254 155.418 62.7734 154.974 62.3774 154.398C61.9814 153.822 61.7834 153.15 61.7834 152.382C61.7834 151.674 61.9574 151.056 62.3054 150.528C62.6534 149.988 63.1274 149.574 63.7274 149.286C63.2474 149.01 62.8754 148.65 62.6114 148.206C62.3594 147.75 62.2334 147.222 62.2334 146.622C62.2334 145.566 62.6174 144.738 63.3854 144.138C64.1654 143.526 65.2034 143.22 66.4994 143.22C67.7834 143.22 68.8094 143.526 69.5774 144.138C70.3574 144.738 70.7474 145.56 70.7474 146.604C70.7474 147.204 70.6154 147.732 70.3514 148.188C70.0994 148.632 69.7394 148.998 69.2714 149.286C69.8714 149.574 70.3454 149.988 70.6934 150.528C71.0414 151.056 71.2154 151.674 71.2154 152.382C71.2154 153.15 71.0174 153.822 70.6214 154.398C70.2254 154.974 69.6674 155.418 68.9474 155.73C68.2394 156.03 67.4234 156.18 66.4994 156.18ZM66.4994 148.638C67.2194 148.626 67.8254 148.44 68.3174 148.08C68.8094 147.72 69.0554 147.246 69.0554 146.658C69.0554 146.058 68.8094 145.578 68.3174 145.218C67.8374 144.846 67.2314 144.66 66.4994 144.66C65.7554 144.66 65.1374 144.84 64.6454 145.2C64.1654 145.56 63.9254 146.046 63.9254 146.658C63.9254 147.258 64.1654 147.738 64.6454 148.098C65.1374 148.458 65.7554 148.638 66.4994 148.638ZM66.4994 154.74C67.3394 154.74 68.0414 154.524 68.6054 154.092C69.1694 153.66 69.4514 153.09 69.4514 152.382C69.4514 151.674 69.1694 151.11 68.6054 150.69C68.0414 150.27 67.3394 150.06 66.4994 150.06C65.6474 150.06 64.9394 150.27 64.3754 150.69C63.8114 151.11 63.5294 151.674 63.5294 152.382C63.5294 153.09 63.8114 153.66 64.3754 154.092C64.9394 154.524 65.6474 154.74 66.4994 154.74Z" fill="white"/>
<rect x="262" y="30" width="28" height="18" rx="5" fill="#C4C4C4"/>
<path d="M281.5 133C281.5 139.332 276.147 144.5 269.5 144.5C262.853 144.5 257.5 139.332 257.5 133C257.5 126.668 262.853 121.5 269.5 121.5C276.147 121.5 281.5 126.668 281.5 133Z" fill="#FF3434" stroke="white"/>
<path d="M293.5 133C293.5 139.332 288.147 144.5 281.5 144.5C274.853 144.5 269.5 139.332 269.5 133C269.5 126.668 274.853 121.5 281.5 121.5C288.147 121.5 293.5 126.668 293.5 133Z" fill="#FF7C03" stroke="white"/>
<defs>
<linearGradient id="paint0_linear_202_205" x1="0" y1="85.5" x2="321" y2="85.5" gradientUnits="userSpaceOnUse">
<stop stop-color="#C79081"/>
<stop offset="1" stop-color="#DFA579"/>
</linearGradient>
</defs>
</svg>
