<svg width="75" height="50" viewBox="0 0 75 50" fill="none" xmlns="http://www.w3.org/2000/svg">
<path d="M24.96 33.16C23.808 32.936 22.752 32.6 21.792 32.152C20.832 31.672 19.952 31.16 19.152 30.616C18.352 30.04 17.632 29.448 16.992 28.84C16.352 28.2 15.792 27.592 15.312 27.016L10.608 21.208C10.064 20.568 9.472 19.8 8.832 18.904C8.224 18.008 7.648 17.128 7.104 16.264C7.2 17.064 7.28 17.912 7.344 18.808C7.44 19.672 7.488 20.472 7.488 21.208V43H4.56V9.736H5.472L18.24 26.008C18.464 26.36 18.8 26.744 19.248 27.16L33.6 9.736H34.512V43H31.584V21.208C31.584 20.408 31.616 19.512 31.68 18.52C31.776 17.496 31.872 16.568 31.968 15.736C31.296 16.664 30.592 17.64 29.856 18.664C29.12 19.656 28.448 20.504 27.84 21.208L21.312 28.936C21.952 29.384 22.624 29.8 23.328 30.184C24.064 30.536 24.848 30.808 25.68 31L24.96 33.16Z" fill="black"/>
<path d="M54.4538 9.688C55.8938 9.688 57.2058 9.896 58.3898 10.312C59.5738 10.728 60.5818 11.32 61.4138 12.088C62.2778 12.856 62.9498 13.768 63.4298 14.824C63.9098 15.88 64.1498 17.048 64.1498 18.328C64.1498 20.056 63.7338 21.512 62.9018 22.696C62.1018 23.848 60.9818 24.744 59.5418 25.384C61.3978 26.12 62.8698 27.272 63.9578 28.84C65.0778 30.376 65.6378 32.12 65.6378 34.072C65.6378 35.512 65.3818 36.808 64.8698 37.96C64.3578 39.112 63.6218 40.104 62.6618 40.936C61.7018 41.768 60.5178 42.408 59.1098 42.856C57.7338 43.304 56.1818 43.528 54.4538 43.528C52.9178 43.528 51.5578 43.496 50.3738 43.432C49.1898 43.4 48.1818 43.352 47.3498 43.288C46.3898 43.192 45.5418 43.096 44.8058 43V12.712C43.7818 12.552 42.8058 12.264 41.8778 11.848C40.9818 11.432 40.2138 10.776 39.5738 9.88L41.1578 8.248C41.8298 8.888 42.6298 9.368 43.5578 9.688C44.4858 10.008 45.5898 10.168 46.8698 10.168C47.6058 10.168 48.2298 10.152 48.7418 10.12C49.2538 10.056 49.7658 9.992 50.2778 9.928C50.7898 9.864 51.3498 9.816 51.9578 9.784C52.5978 9.72 53.4298 9.688 54.4538 9.688ZM47.7338 26.968V40.648C48.6618 40.712 49.7018 40.776 50.8538 40.84C52.0058 40.872 53.1578 40.888 54.3098 40.888C56.9978 40.888 59.0778 40.28 60.5498 39.064C62.0538 37.848 62.8058 36.12 62.8058 33.88C62.8058 32.92 62.5978 32.024 62.1818 31.192C61.7978 30.36 61.2538 29.64 60.5498 29.032C59.8458 28.392 58.9978 27.896 58.0058 27.544C57.0138 27.192 55.9258 27 54.7418 26.968H54.5498H47.7338ZM54.3098 12.328C53.2858 12.328 52.4698 12.36 51.8618 12.424C51.2538 12.456 50.7258 12.504 50.2778 12.568C49.8618 12.6 49.4618 12.648 49.0778 12.712C48.6938 12.776 48.2458 12.808 47.7338 12.808V24.328H54.4058C56.4218 24.328 58.0698 23.816 59.3498 22.792C60.6298 21.736 61.2698 20.248 61.2698 18.328C61.2698 16.408 60.6298 14.936 59.3498 13.912C58.1018 12.856 56.4218 12.328 54.3098 12.328Z" fill="#FFB359"/>
</svg>
